<?xml version="1.0" encoding="UTF-8"?>
<svg width="179.36mm" height="77.891mm" version="1.1" viewBox="0 0 179.36 77.891" xmlns="http://www.w3.org/2000/svg"><g transform="translate(28.63 -62.097)" fill-rule="evenodd" stroke-linecap="round"><path d="m16.393 64.553c-0.43714-0.01399-0.87345 0.05931-1.2827 0.21366-1.2662 0.47741-2.0815 1.6959-2.1445 2.9882-1.0301 0.69899-1.9993 1.4941-2.8095 2.4821-2.9716 3.6239-3.7881 8.5732-2.1353 12.959 0.31972 0.84896 0.91538 1.4847 1.598 2.0034-0.082695-0.0032-0.15479-0.03068-0.23797-0.03253-1.4801-0.032909-3.0069 0.18177-4.5516 0.58758l-2.9273 0.0856h0.010615c-0.67346 0.015024-1.2379 0.27382-1.7254 0.6249-2.1505-3.51-6.129-5.5715-10.208-5.5843-0.76925-0.0025-1.5454 0.06429-2.3178 0.20476-1.1484 0.20888-2.2428 0.61947-3.2936 1.1323l-4.5294 0.59511c-0.04156 0.0055-0.08304 0.01205-0.12429 0.01951l-0.05307 0.01027h-0.0038c-1.6682 0.30341-2.836 1.7802-2.5718 3.548l0.01712 0.10923c-5e-3 -0.02751-0.0097-0.0548-0.01404-0.08218l2.7201 21.11c0.0058 0.0451 0.01248 0.0899 0.02055 0.13457 0.26676 1.4667 1.9519 2.7816 3.4775 2.6335 0.02679-3e-3 0.05343-6e-3 0.08012-9e-3l5.6193-0.72077c0.05112-6e-3 0.10205-0.014 0.15271-0.0233l0.03493-8e-3c1.8164-0.33014 2.725-1.8622 2.5831-3.4477-0.00308-0.0372-0.00698-0.0742-0.011642-0.11128l-0.3585-2.7033c0.26211-0.033 0.51544 0.0166 0.77795-0.0311 2.847-0.51781 5.2358-1.8162 6.943-3.6768l0.11368 3.5888v-0.0185c0.038384 1.7253 1.6933 3.0842 3.1515 3.1166 0.048317 6.6e-4 0.096546 4.1e-4 0.14484-1e-3l1.6151-0.0531-3.586 1.9555c-0.011695 7e-3 -0.02333 0.013-0.034926 0.0195-1.3841 0.78203-1.9928 2.2075-1.2827 3.8202 8.6139e-4 2e-3 0.001855 5e-3 0.002717 7e-3l0.015406 0.0336c0.030712 0.0692 0.064458 0.13681 0.10101 0.20305l1.4806 2.6855 9.939e-4 4e-3c0.65357 1.1811 2.4847 1.897 3.8333 1.3032 0.00172-6.6e-4 0.00378-2e-3 0.0055-3e-3l0.032189-0.0144c0.078182-0.0347 0.15463-0.073 0.22907-0.11506l3.3881-1.9144c0.013159 1.4438 0.00722 3.0438-0.15271 4.3188-0.00239 0.0181-0.00451 0.0359-0.00649 0.0541-0.043202 0.41234-0.080528 0.94755 0.24071 1.6775 0.12216 0.27747 0.32827 0.56453 0.5708 0.81904l-1.685-0.08c-0.074992-3e-3 -0.16663-5e-3 -0.28488 1e-3 -1.4536 0.0777-2.6093 1.3567-2.6725 2.6996l-0.00378 0.0774-0.42459-0.0568c-0.06915-0.01-0.13848-0.0164-0.20818-0.0205l-0.049304-3e-3c-0.0082-4.8e-4 -0.016459-6.6e-4 -0.024655-1e-3 -0.096588-5e-3 -0.26128 0.0475-0.38418 0.0582-0.4035-0.10621-0.77051-0.28945-1.219-0.31056-0.00219 6.6e-4 -0.00431 2e-3 -0.00649 3e-3 -0.72787-0.0333-1.4052 0.15903-2.0476 0.39342-0.25847-0.16537-0.51052-0.27336-0.717-0.33898-0.032169-0.0101-0.064372-0.0199-0.096902-0.0288-0.48018-0.13244-0.99316-0.2191-1.5323-0.24448-0.76952-0.0362-1.2144-0.0362-1.9915 0.1688l-0.82589 8e-3 0.069851 1e-3c-0.23002 3e-3 -0.43204 0.0699-0.64441 0.11505-0.27688-0.13705-0.57053-0.24534-0.88821-0.27564l0.054785 4e-3 -1.9466-0.19928c-0.046489-5e-3 -0.09303-8e-3 -0.1397-0.0103-0.40123-0.0198-0.79172 0.0791-1.1635 0.23284-0.38708-0.17011-0.76837-0.27503-1.0793-0.28968-0.32585-0.0154-0.32054-4e-3 -0.49957-1e-3 -0.03803 5.9e-4 -0.0873 2e-3 -0.12806 3e-3l0.0014-0.0311c0.06749-1.4338-1.1454-2.8936-2.6893-2.9663l-1.9709-0.0931c-0.07096-3e-3 -0.17076-5e-3 -0.28488 1e-3 -0.65307 0.0349-1.2268 0.33417-1.6874 0.75056-0.83097-0.46496-1.7261-0.80766-2.6879-0.85294-0.41262-0.0195-0.79091 0.0784-1.1817 0.1373l-1.6566-0.15922c-0.02499-3e-3 -0.04994-5e-3 -0.07499-7e-3l-0.01952-1e-3c-0.0181-1e-3 -0.03597-3e-3 -0.0541-4e-3 -0.0794-4e-3 -0.16983-5e-3 -0.28352 1e-3 -0.0011 5e-5 -0.0017-6e-5 -0.0027 0l-0.0024 1e-3c-1.3869 0.0767-2.5281 1.0612-2.6574 2.5513l-0.767 7.7295c-0.0042 0.0448-7e-3 0.0896-0.0089 0.13457-0.06078 1.2851 1.1546 2.7848 2.4705 2.957 0.0267 3e-3 0.05333 7e-3 0.08012 9e-3l2.0551 0.20579c0.05208 5e-3 0.10454 9e-3 0.15682 0.0106 2e-3 9e-5 0.0038-1e-4 0.0058 0l0.03047 1e-3c1.5183 0.0555 2.5033-0.92116 2.803-2.1483 0.17341-0.0245 0.34861-0.0276 0.51875-0.0657 0.2017 1.2958 1.2526 2.351 2.6054 2.4147l1.9658 0.0931c0.60931 0.0296 1.1592-0.1835 1.6395-0.49683 0.78457 0.45471 1.6223 0.75789 2.4267 0.79575 0.47998 0.0227 0.92815-0.0815 1.3847-0.15511l1.7586 0.18113c0.047338 5e-3 0.094893 9e-3 0.14244 0.0117 0.38198 0.0188 0.75663-0.0651 1.1132-0.20442 0.37757 0.22005 0.77231 0.38138 1.1594 0.39959 0.048281 2e-3 0.096509 3e-3 0.14484 3e-3l1.9093-0.0164c-0.034011-3.6e-4 -0.068102-1e-3 -0.10238-3e-3l0.1219 3e-3c0.77569 3e-3 1.4784-0.33501 1.999-0.8591 0.87856 0.60561 1.8722 1.0545 2.9793 1.1067 0.41275 0.0194 0.83603-0.0205 1.259-0.0921 0.031043 0.0145 0.073567 0.059 0.10375 0.0726 0.22815 0.10277 0.43294 0.1768 0.6249 0.23557 0.19196 0.0588 0.089816 0.11855 0.81528 0.15272h0.00139c0.45298 0.0212 0.91538-0.12089 1.3292-0.3068 0.23923 0.0807 0.47352 0.17528 0.73618 0.18763l1.9709 0.0931-0.00517-1e-3c0.34213 0.0168 0.66679-0.0517 0.97723-0.15135 0.32918 0.17276 0.69469 0.28827 1.0947 0.30817 0.05213 3e-3 0.10458 5e-3 0.15682 5e-3l1.9658-7e-3c0.04446-2e-4 0.08881-1e-3 0.1332-4e-3 0.58564-0.0315 1.0826-0.22961 1.5104-0.51499 0.51729 0.33647 1.0685 0.57042 1.5854 0.71426 0.07342 0.0206 0.08577 0.0185 0.14861 0.0311 0.10132 0.47917 0.27461 0.95177 0.54101 1.2748 0.39007 0.47299 0.78716 0.68829 1.0974 0.82965 0.0095 5e-3 0.0189 8e-3 0.02842 0.0127l1.3683 0.604c-0.02005-9e-3 -0.04025-0.0186-0.05992-0.0281l0.06985 0.0322c0.3507 0.15889 0.75554 0.25964 1.13 0.27735h0.0052c0.98659 0.0445 1.9667-0.59702 2.2907-0.92143 0.03053-0.0303 0.06037-0.0617 0.08937-0.0935 2.1856-2.4148 3.5305-4.1681 4.3613-5.3991 0.3702-0.54856 0.60947-0.95968 0.8074-1.3251l1.4559 3.6429c0.48853 1.2382 1.9909 1.9012 2.7502 1.9374l0.03219 1e-3c0.04999 3e-3 0.09991 4e-3 0.14998 4e-3l0.97347-4e-3c0.0078 3e-5 0.01552 3e-5 0.02328 0 0.32526-4e-3 0.54374-0.15908 0.81014-0.24311 0.30802 0.0928 0.6527 0.21871 0.8437 0.22771l0.06609 3e-3c0.04655 3e-3 0.09309 4e-3 0.1397 4e-3l0.73892-4e-3c0.52308-1e-3 1.0251-0.18737 1.4778-0.42733 0.44371 0.38252 0.97946 0.67281 1.6203 0.70297 0.04998 3e-3 0.10024 5e-3 0.15032 5e-3l1.9658-7e-3c0.04446-2e-4 0.08881-1e-3 0.1332-4e-3 0.58548-0.0315 1.0827-0.22973 1.5104-0.51498 0.5173 0.33652 1.0685 0.57042 1.5854 0.71426 0.36579 0.10268 0.71105 0.15009 0.73755 0.15135h0.0014c0.41272 0.0193 0.88382-0.12126 1.3214-0.31434 0.33666 0.18213 0.69985 0.30223 1.0728 0.31981l1.9569 0.0918c0.52385 0.0254 0.99819-0.15217 1.4337-0.39993 0.25572 0.15308 0.53457 0.35014 0.74166 0.43486 0.17677 0.0723 0.33161 0.12343 0.46602 0.16298 0.06721 0.0197 0.12797 0.0359 0.19415 0.0517 0.03309 8e-3 0.0661 0.0162 0.11505 0.026 0.04894 0.01-0.06695 0.0274 0.39993 0.0493h0.0052c0.66234 0.0298 1.4745-0.24075 1.9853-0.6201l0.0038-3e-3 0.96799-0.72077c0.01478-0.0111 0.02962-0.0221 0.04417-0.0335 0.1138-0.0886 0.19918-0.257 0.30543-0.38042-0.14129 0.29695-0.25867 0.65078-0.27975 1.0947-0.03136 0.66311 0.25471 1.4593 0.64476 1.9322 0.39004 0.47295 0.78719 0.68932 1.0974 0.83068 0.0095 5e-3 0.01888 9e-3 0.02842 0.013l1.3436 0.59271c-0.01179-5e-3 -0.02359-0.0111-0.03525-0.0168l0.05102 0.0232c0.35496 0.16376 0.76733 0.26686 1.1484 0.28488h0.0053c0.9866 0.0445 1.9677-0.596 2.2917-0.92039 0.03008-0.0307 0.05943-0.0619 0.088-0.0942 1.2105-1.3374 1.6648-2.0357 2.415-2.9909 1.0023 1.0332 2.3806 1.6901 3.8138 1.7576 1.2794 0.0603 2.4808-0.29875 3.6093-1.02 0.9353 0.80347 2.0828 1.22 3.1385 1.2696 0.48116 0.0226 0.92976-0.0827 1.3861-0.15648l1.7572 0.1825c0.04691 5e-3 0.09397 8e-3 0.14108 0.0103 1.3929 0.0685 2.7716-1.0132 2.9625-2.4718 0.0033-0.0271 0.0066-0.0543 0.0089-0.0815l0.50471-5.0861c0.0046-0.0474 0.0081-0.0946 0.01027-0.1421 0.04963-1.1018-0.83669-2.3953-2.086-2.7954 1.216 0.0556 2.4763-0.15664 3.736-0.51635 0.5453 0.37936 1.0818 0.68693 1.5634 0.90841 0.43641 0.20066 0.82829 0.34774 1.1673 0.45438 0.33898 0.10664 0.34482 0.18796 1.1118 0.23009 0.78056 0.0429 1.6439-0.26012 2.1935-0.66907s0.86016-0.84979 1.1026-1.2525c6e-3 -0.0103 0.01219-0.0207 0.01815-0.0312l1.6073-2.7554c-0.02299 2.1742-0.04605 4.4601-0.07122 6.1966-3.91e-4 0.0263-3.91e-4 0.0524 0 0.0788 0.02399 1.5205 1.3417 3.2229 3.1461 3.322 0.0053 4.6e-4 0.0106 6.6e-4 0.01577 1e-3l0.0387 1e-3c0.72788 0.04 1.7284 0.0171 2.9197 8e-3 0.99293-8e-3 1.9298-0.0187 2.2144-0.0223-0.0312-2e-3 -0.0607-3e-3 -0.0883-5e-3l0.176 4e-3s-0.0307 3.3e-4 -0.0877 1e-3c0.39433 0.0224 1.0713 0.0441 1.9178-0.46841 0.91355-0.55306 1.48-1.7982 1.5268-2.6506l7e-3 -0.13046c5e-3 -0.0771 6e-3 -0.15457 4e-3 -0.23181-0.0535-1.6782-0.0459-3.787-0.0466-5.8093 1.2909-0.30112 2.2559-1.3581 2.4462-2.5794 4e-3 -0.0237 7e-3 -0.0475 0.0103-0.0712l0.34413-2.6917 2.1524 11.673c5e-3 0.0272 0.0107 0.0544 0.0168 0.0815 0.35643 1.6396 2.0123 2.711 3.5703 2.5058 0.0481-7e-3 0.0961-0.0142 0.14382-0.0233l5.2454-0.98716c-0.0284 5e-3 -0.0568 9e-3 -0.0856 0.0127l0.11197-0.0185c1.3726-0.239 2.3097-1.4803 2.5372-2.7122 1.4527 0.65921 2.9265 1.3199 3.7905 1.7353 0.53733 0.26421 1.1516 0.45719 1.9788 0.34823 1.3094-0.17251 2.2458-1.2412 2.6023-1.8973 0.0106-0.0193 0.021-0.0386 0.0311-0.0582l0.63277-1.2385c1.9202 2.0118 4.6274 3.3206 7.5772 3.4826 1.2477 0.0685 2.5469-0.15289 3.8425-0.52286 0.54528 0.37936 1.0804 0.6883 1.5621 0.90978 0.43641 0.20066 0.82965 0.34637 1.1686 0.45301s0.34312 0.18796 1.1101 0.23009c0.78055 0.0429 1.6456-0.26011 2.1952-0.66906 0.54959-0.40895 0.85879-0.84979 1.1012-1.2525 6e-3 -0.01 0.0122-0.0199 0.0182-0.0298l1.8466-3.1628c5e-3 -8e-3 9e-3 -0.0154 0.013-0.0233 0.14755-0.25861 0.38548-0.47301 0.43623-1.3967 0.0603-1.0973-0.56936-2.0089-0.98477-2.4006-0.22747-0.2145-0.32472-0.24435-0.47766-0.34138-0.0341-0.15835-0.0848-0.54314-0.0517-1.1454 0.0771-1.4037 0.54906-3.6856 1.0625-6.124 0.0274-0.13178 0.0447-0.26551 0.0517-0.39993l8e-3 -0.13183v-1e-3c0.0367-0.67234-0.17017-1.6418-0.82315-2.3708-0.65301-0.72907-1.5428-1.0535-2.3051-1.1546h-1e-3l-2.1822-0.31057c0.57881-0.65736 1.1109-1.3338 1.5672-1.9853 0.50155-0.71606 0.92424-1.3986 1.258-2.0072 0.33378-0.60858 0.5716-1.0215 0.76734-1.7614 0.33064-1.2497-0.0202-2.4842-0.55505-3.3039-0.53493-0.81965-1.1835-1.3775-2.1315-1.725-0.0121-5e-3 -0.0242-8e-3 -0.0363-0.0127l-0.70913-0.24722c0.11522-0.58767 0.0834-1.0999-0.12943-1.6552-0.24075-0.62818-0.81242-1.3561-1.6538-1.7031-0.0103-0.0046-0.0207-0.0087-0.0311-0.01299-0.59311-0.23558-1.8941-0.79408-2.3708-1.0043-0.12239-0.054-0.24886-0.09844-0.37802-0.1332l-0.0284-0.0079c-4e-3 -6.63e-4 -8e-3 -2e-3 -0.0117-0.0027-0.3439-0.09084-0.66812-0.11336-0.9745-0.09176-6.6e-4 5.3e-5 -2e-3 -6e-5 -3e-3 0-0.91464 0.0646-1.7978 0.3535-2.4304 1.5764-8e-3 0.0163-0.0163 0.03247-0.0243 0.04897-0.0162 0.03313-0.0577 0.10919-0.0753 0.14484-1.382-0.34973-2.9832 0.46254-3.4823 1.8326-3e-3 0.0086-6e-3 0.01736-9e-3 0.02604l-0.72214 2.0486c-0.0223 0.0631-0.0421 0.12683-0.0596 0.19141l-8e-3 0.0284c-6.6e-4 3e-3 -2e-3 7e-3 -3e-3 0.0106-0.23586 0.89171 0.0668 1.8426 0.63551 2.5598-0.6293 1.1074-1.3383 2.3792-1.7641 3.0837-0.0958 0.17085-0.17211 0.35183-0.2277 0.53964-0.0413 0.0994-0.0651 0.0979-0.0959 0.21366-0.37933 1.434 0.28804 2.6392 1.4419 3.2806-1.3495 0.67035-2.4956 1.5898-3.3416 2.6451-0.389 0.4853-0.58688 1.0252-0.87862 1.5415-0.13856-0.27743-0.30327-0.53024-0.47834-0.73789l0.0278 0.0325-2.6917-3.3132-1e-3 -1e-3c-0.0558-0.0687-0.17039-0.10467-0.23558-0.17051 2.7862-1.8187 5.2297-4.2462 6.6054-7.4351 0.57639-1.336 0.33202-2.8098-0.19688-3.7826-0.52891-0.97275-1.2158-1.6345-2.2298-2.0719-2e-3 -6.63e-4 -5e-3 -2e-3 -7e-3 -0.0027l-0.0764-0.03253c-0.0679-0.02922-0.13705-0.05533-0.20715-0.07875l-9.7306-3.2265c-0.0107-0.0033-0.0217-0.0069-0.0325-0.01027-0.28829-0.09138-0.56378-0.13039-0.82179-0.13696-1.1406-0.02796-2.2454 0.47937-2.8067 1.7805-2e-3 4e-3 -3e-3 0.0078-5e-3 0.01166l-0.013 0.02982c-0.0288 0.06833-0.0545 0.13801-0.0774 0.20853l-0.87246 2.6465-1e-3 4e-3c-0.41496 1.266 0.29922 3.0767 1.636 3.6535l0.0154 7e-3c0.0853 0.0374 0.17244 0.0705 0.26125 0.0986l2.9625 0.9406c-0.87345 0.81029-1.7975 1.6776-2.6311 2.2777-0.0143 0.0107-0.0287 0.0216-0.0428 0.0325-0.0136 0.0102-0.03 0.0435-0.0438 0.0541l-0.0144-0.0764c-6e-3 -0.0333-0.013-0.0666-0.0205-0.0996-0.29553-1.3122-1.5579-2.565-3.1902-2.5194-0.11305 3e-3 -0.23208 0.0129-0.35577 0.0308l-0.027 4e-3c-0.0416 5e-3 -0.083 0.0121-0.1243 0.0195l-1.712 0.31297c0.2676-0.61031 0.55816-1.2283 0.76597-1.8117 0.32775-0.92019 0.57914-1.7821 0.75706-2.5325s0.30707-1.2712 0.29892-2.0695c-0.0138-1.3528-0.71009-2.4982-1.483-3.181-0.77288-0.6828-1.5943-1.0676-2.6414-1.1543-0.0133-0.0013-0.0267-0.0027-0.0401-4e-3l-1.1351-0.07636c2.1e-4 -0.04844 7e-3 -0.01054 7e-3 -0.06985v-0.0026c-8e-3 -0.72704-0.20685-1.2638-0.6136-1.8155s-1.1617-1.109-2.0784-1.2217c-0.0116-0.0013-0.0232-0.0027-0.0349-4e-3 -0.72975-0.08003-2.314-0.2948-3.5556-0.34584-1.2415-0.05102-2.3401 0.47705-2.7263 2.3027-0.0033 0.01809-7e-3 0.03598-0.01027 0.05414-0.02001 0.10566-0.07202 0.33687-0.0969 0.46226h-0.0079c-0.06934-0.0046-0.13867-0.0074-0.20818-0.0068h-0.03383c-1.4533 0.01597-2.8155 1.2518-2.9351 2.7348-4.9e-4 0.0091-6.62e-4 0.01796-0.0013 0.02703l-0.12155 1.7288c-0.36243-0.59441-0.81136-1.0954-1.1556-1.2758-0.35417-0.18558-0.43438-0.18458-0.57216-0.22154-2e-3 -0.0088-0.0066-0.03021-0.02193-0.06573 1.1263-0.55615 1.8196-1.7266 1.7977-2.9081-5.5e-4 -0.02419-0.0013-0.04844-0.0027-0.0726l-0.20578-4.4791c-0.0027-0.06315-8e-3 -0.1259-0.01544-0.18867-0.15873-1.3374-1.1916-2.4796-2.5883-2.741-0.02021-0.33489-0.03234-0.66564-0.05579-0.99675-0.0033-0.04151-0.0074-0.08265-0.01266-0.12395-0.07558-0.63643-0.34243-1.4903-1.069-2.151-0.29864-0.27158-0.65752-0.425-1.0122-0.55915 0.16641-0.12057 0.38563-0.1921 0.50882-0.33899 0.0053-0.0064 0.01027-0.01303 0.01544-0.01952 0.9253-1.1241 1.3954-1.6927 1.685-2.0575 0.14478-0.18243 0.24212-0.2983 0.39445-0.53964 0.15233-0.24134 0.39963-0.93383 0.4311-1.1584 0.16739-1.1943-0.65427-2.3797-1.2176-2.7978-0.0033-0.0022-6e-3 -0.0043-0.0092-0.0065-0.84436-0.62154-1.7396-1.0628-2.5636-1.434-0.28429-0.12806-0.53296-0.2241-0.78686-0.32495l0.16949-1.2138c0.19897-1.4185-0.89166-3.0628-2.463-3.283l-2.7239-0.38179c-0.05778-0.0081-0.1551-0.02077-0.29516-0.02602-0.0027-9.1e-5 -0.0027 8.7e-5 -0.0053 0-1.4755-0.05276-2.7776 1.0302-2.9841 2.503l-1.6333 11.656c-0.17795 1.2686 0.63316 2.4526 1.6929 2.9817 0.0033 0.04708 6e-6 0.1491 0.0013 0.17737 3.64e-4 0.01165 6.63e-4 0.02328 0.0013 0.03493 0.01537 0.31704 0.03684 0.57777 0.05447 0.88376-0.3644 0.14417-0.68651 0.34395-0.9745 0.60435-0.30134-0.52346-0.66238-0.91006-0.98339-1.144-0.51338-0.37412-1.0169-0.6-1.5713-0.79336-1.1088-0.38673-2.4222-0.59662-3.9302-0.56532-0.34822 0.0072-0.71285 0.0385-1.0793 0.07499 2.1226-1.4118 4.3871-3.2806 5.3293-6.238 0.0013-0.0034 0.0027-0.0068 4e-3 -0.01027 0.02432-0.07739 0.10553-0.29168 0.15819-0.66633v-0.0014c0.16562-1.1817-0.26427-2.3359-0.87485-3.0776-0.6102-0.74126-1.3357-1.2034-2.2832-1.408l-0.0013-0.0014-3.0283-0.6653c-0.11804-0.20296-0.25541-0.44602-0.60709-0.75159-0.3949-0.34312-1.067-0.61477-1.4792-0.67318-0.11077-0.01563-0.2173-0.02512-0.3157-0.02842h-0.0013c-0.66757-0.02188-1.208 0.18535-1.5665 0.38281l-0.08868 0.0493c0.0226-0.0134 0.04618-0.0268 0.07054-0.04041-0.91652 0.47865-2.3686 1.1047-3.3669 1.2919l0.0068-0.0014c-0.81944 0.15126-2.1886 1.1574-2.3684 2.441-0.1297 0.92545 0.06751 1.284 0.28591 1.7377l0.89437 1.9969c0.01802 0.03972 0.03691 0.07901 0.05685 0.11779 0.16063 0.31509 0.51026 0.60874 0.85808 0.87862-0.09826 0.0485-0.20842 0.15185-0.30269 0.19415-0.0544 0.02449-0.108 0.05097-0.16059 0.0791-0.47691 0.2541-1.4429 0.88966-1.6306 2.2284-0.10764 0.76928 0.30503 1.7988 0.57319 2.1548l1.1919 1.597c0.0026 0.0034 0.0053 0.0068 0.0079 0.01027 0.28035 0.37172 1.0099 0.91123 1.7679 1.1053-0.31686 0.25035-0.64858 0.47398-0.94231 0.76358-0.21228 0.20928-0.37367 0.47756-0.56806 0.70913-0.91793-1.854-2.8964-3.6627-5.7422-4.4595 0.51768-0.8847 0.50875-1.8322 0.32358-2.4034-0.03452-0.10644-0.09074-0.18201-0.12943-0.27804 0.50288-0.19602 0.97925-0.49294 1.36-0.99778l1.2231-1.5648c0.0096-0.01199 0.01902-0.02413 0.02843-0.0363 0.88208-1.1694 0.65238-3.099-0.40507-4.0442-0.04366-0.03843-0.08844-0.07515-0.13457-0.1106l-5.7741-4.5069c-0.01157-0.0092-0.0232-0.01808-0.03493-0.02705-0.51406-0.38772-1.1521-0.6023-1.7898-0.60572-0.82189-0.0044-1.6634 0.35677-2.2311 0.98237-0.0484 0.0533-0.09446 0.10829-0.13833 0.16538l-1.2361 1.61c-0.0052 0.0069-0.01027 0.01396-0.01541 0.02089l-0.02055 0.02705c-0.55908 0.74202-0.68898 1.5418-0.55128 2.2777-0.61533-0.09534-1.2527-0.09496-1.7031 0.11505-0.31238 0.14564-0.32142 0.25958-0.49204 0.40644-0.44655-3.2514-3.21-5.7212-6.463-5.7343-0.22086-8.62e-4 -0.44441 0.0091-0.67009 0.03116-3.6027 0.35295-6.2931 3.6275-5.9401 7.2303 0.12878 1.3145 0.73943 2.4255 1.523 3.3905-0.28506 0.60511-0.44948 1.2366-0.42185 1.7459 0.0017 0.02807 0.0039 0.05623 0.0065 0.08423 0.20398 2.3527 0.3867 5.2532 0.47492 7.8436 0.08586 2.521 0.04894 4.8501-0.05855 5.7377 0.0011-2.45e-4 0.0021-4.3e-4 0.0027-3.44e-4l3.43e-4 3.44e-4h3.42e-4l3.42e-4 3.45e-4h3.43e-4v3.38e-4h3.42e-4v6.89e-4c0.0011 0.0053-0.0067 0.02326-0.01199 0.05751 0.0025-0.01882 5e-3 -0.0385 0.0075-0.0589-0.02529 6e-3 -0.16579 0.10307-0.73207 0.15853-0.15952 0.01564-0.2205 0.01305-0.1671 0.01537-0.12519-0.0053-0.25059-2e-3 -0.37528 0.01027l-0.10615 0.0106c-0.27419 0.02703-0.5184 0.10828-0.76597 0.18353 0.07324-1.2904-0.07799-2.6414-0.51259-3.9884-0.81048-2.5121-2.7781-4.8949-5.786-6.3647l-1.408-3.735 4.7454-1.7884h0.0014c2.4165-0.91186 3.6691-3.6826 2.7578-6.0993-1.6527-4.3857-5.5306-7.5648-10.155-8.3264-0.57731-0.09508-1.1574-0.15232-1.7353-0.16984-0.73762-0.02236-1.4704 0.02314-2.1924 0.12292-0.58391-0.5614-1.288-0.97947-2.125-1.0067zm51.265 6.7739c0.0053-3e-3 0.01272-0.0059 0.01816-0.0089l0.02776-0.01541c-0.01517 8e-3 -0.03041 0.01621-0.04585 0.02431zm50.622 60.685c-9e-3 1e-3 -0.0174 5e-3 -0.0264 6e-3l0.0568-0.0106zm-59.323 7.6888c-0.0053-3e-3 -0.01067-4e-3 -0.01577-7e-3l0.05274 0.0233zm-39.713-1.8624c-0.0025-1e-3 -0.0051-2e-3 -0.0075-3e-3l0.02465 0.0109zm-22.431-3.696c-0.00656-2e-5 -0.012927 6.6e-4 -0.01952 6.6e-4l0.047595-3.3e-4zm-19.621-0.81219c0.0036 2.4e-4 0.0073 5.9e-4 0.01096 1e-3h0.01027c-0.0072-2.9e-4 -0.01405-6.7e-4 -0.02123-1e-3zm-0.10409-46.912c-0.0015-0.0091-0.0017-0.01794-0.0031-0.02705l-0.0038-0.02534zm88.981-1.7425c-6e-3 0.0035-0.03048 0.02601-0.03492 0.02842l-0.12155 0.06026c0.05288-0.02849 0.10144-0.06299 0.15648-0.08868zm-4.1555 13.671c0.0081 0.03028 0.0163 0.06063 0.02465 0.09074h-0.2099c0.06175-0.03041 0.12325-0.06089 0.18524-0.09074zm-14.486 1.2118c-0.0024 6.36e-4 -0.0054 0.0013-0.0072 2e-3 -5e-3 0.0013-0.01032 0.0013-0.01541 0.0027zm-1.8692 0.23113c0.05153 0.08119 0.11569 0.1555 0.16949 0.23558-0.08723-1e-3 -0.18132 0.0112-0.27324 0.0182 0.03915-0.08064 0.06647-0.17145 0.10375-0.25372zm11.959 0.94608c-0.05546 5e-3 -0.09766 6e-3 -0.13388 5e-3 5.76e-4 -1e-3 0.0013-3e-3 2e-3 -4e-3zm-9.508 4.013c0.01633 7e-3 0.03285 0.0132 0.0493 0.0195-8.61e-4 5e-5 -0.0019-4e-5 -0.0027 0-0.0224 6.7e-4 -0.01202-7e-3 -0.03355-7e-3zm48.332 2.7297c0.02982 0.0422 0.06069 0.0838 0.09245 0.1243-0.03094 0.0273-0.06182 0.0547-0.09245 0.0825zm-2.4417 3.7449h0.0076c-0.0027 6e-3 -0.0053 0.0123-0.0076 0.0185zm0 1.0748 0.39719 0.0421c-0.0275-3e-3 -0.055-5e-3 -0.08252-7e-3 -0.10723-6e-3 -0.2116 5e-3 -0.31467 0.0215zm-0.66872 0.92964h0.0387c-0.04208 0.16091-0.07904 0.32516-0.10615 0.49615zm-75.177 1.5364 0.76768 2.6828c7e-3 0.0238 0.01425 0.0476 0.02191 0.0712l0.0038 0.013c0.53418 1.7407 2.708 2.6908 4.2216 2.2893 0.0052-1e-3 0.01057-3e-3 0.01575-4e-3l10.322-2.8071c0.02904-8e-3 0.05786-0.016 0.08663-0.0247l0.0517-0.0168c0.57203-0.17636 1.1597-0.55833 1.6607-1.1323 0.0069 7e-3 0.01361 0.014 0.02055 0.0209-0.0097-9e-3 0.13184 0.14531 0.44924 0.37391-0.07711 0.34041-0.21205 0.66258-0.14758 1.0341 0.09425 0.54323 0.35758 1.0284 0.64168 1.3731l-0.0038-4e-3 2.2246 2.7153c0.0022 3e-3 0.0043 6e-3 0.0065 9e-3 0.65961 0.79754 1.7207 1.2494 2.8327 1.0563h0.0014c0.59573-0.10356 0.83905-0.28296 0.91252-0.32631 2.2026-1.0844 4.2912-2.5562 6.2883-4.2099l-0.27598 5.0084-0.02431-1e-3c-0.06845-3e-3 -0.16908-5e-3 -0.28728 1e-3l-0.0041-1e-3h-3.42e-4c-6.6e-4 1.7e-4 -0.0018 6.6e-4 -0.0024 1e-3l-3.42e-4 3.4e-4h-6.85e-4c-0.94522 0.0539-1.7063 0.5765-2.1781 1.3032l-1.698-0.16162c-0.03833-3e-3 -0.0766-6e-3 -0.11505-8e-3l-0.03903-3e-3c-0.0078-4.7e-4 -0.01552-6.6e-4 -0.02328-1e-3 -0.08459-3e-3 -0.17655-3e-3 -0.27701 1e-3l0.0079 8e-3c-0.0069-3e-3 -0.01364-5e-3 -0.02055-8e-3 -0.0969 5e-3 -0.21272 0.0868-0.31707 0.10889-0.70857-0.84149-1.7243-1.4192-2.8886-1.4741-1.6827-0.0792-3.204 0.93365-3.8877 2.3941-0.0081-4.2e-4 -0.0058-2e-3 -0.01404-3e-3l0.0024 3e-3c-0.0017-6.7e-4 -0.0034-2e-3 -0.0052-3e-3 -0.4016-0.0188-1.1141 0.0429-1.7768 0.49718-0.16809 0.11522-0.2641 0.27206-0.3948 0.4126l-0.41945-1e-3c-0.53145-0.48242-1.1604-0.85916-1.7922-0.8889-0.0056-2e-5 -0.01117-2e-5 -0.01678 0-0.37132-0.015-0.64452 0.0311-0.88273 0.0866-0.03513 8e-3 -0.07003 0.0173-0.10478 0.027l-1.4546 0.40404c-0.016 4e-3 -0.03202 8e-3 -0.04794 0.0127-0.35793 0.10671-0.81269 0.28036-1.284 0.73653-0.1199 0.11604-0.20108 0.29585-0.30269 0.4489-0.32051-0.40092-0.6448-0.63119-0.89026-0.76872l-1.3433-0.77658c0.03016 0.019 0.06039 0.0386 0.0904 0.0586l-0.1284-0.0801c-0.4195-0.25749-0.86121-0.41889-1.4439-0.44684-0.51262-0.0244-1.0464 0.18511-1.5025 0.4465-0.4744-0.46161-1.0838-0.84038-1.8726-0.87999l0.0014-1e-3c-3.98e-4 -3e-5 -0.0012-1e-5 -0.0014 0h-3.42e-4c-1.93e-4 0-6.3e-4 2e-5 -0.0011 0-0.0023-1.2e-4 -0.0041-1e-3 -0.0065-1e-3l-0.0024 3e-3c-0.46834-0.0211-0.72151 0.0535-0.76494 0.0623-0.0338 7e-3 -0.06752 0.0148-0.10101 0.0233l-0.18114 0.0439c-0.08383-0.17307-0.121-0.34521-0.25372-0.51362-0.5411-0.68655-1.3988-1.0135-1.9695-1.0741-0.0099-6.6e-4 -0.01987-2e-3 -0.02979-3e-3l-1.8494-0.176c-0.03833-3e-3 -0.0766-6e-3 -0.11505-8e-3l-0.03903-3e-3c-0.0078-4.8e-4 -0.01552-6.6e-4 -0.02328-1e-3 -0.08456-3e-3 -0.17666-3e-3 -0.27701 1e-3l0.0079 8e-3c-0.0069-3e-3 -0.01364-5e-3 -0.02055-8e-3 -0.09687 5e-3 -0.21275 0.0864-0.31707 0.10854-0.26982-0.32044-0.60369-0.56511-0.95772-0.79199 0.43374-0.0361 0.88047-0.0947 1.1594-0.21743h0.0014c0.47834-0.21062 0.82192-0.47723 1.1118-0.78035 0.28652-0.29961 0.55048-0.5519 0.7622-1.3303 0.52548-1.5735 0.88215-3.2291 1.105-4.9084zm7.5809 10.448c0.0089 5e-3 0.01819 0.01 0.02705 0.015l-0.03972-0.0229zm44.131-9.5607h0.02604c-0.0013 0.0124-0.0033 0.025-0.0046 0.0373-0.0072-0.0123-0.01411-0.0249-0.0212-0.0373zm79.1 7.533 0.0568 0.0322c0.0246 0.0148 0.0106 0.0142 0.0325 0.0311-0.0193-0.0107-0.0728-0.0539-0.0894-0.0633zm-88.659 3e-3c0.01709 0.0307 0.03426 0.0617 0.05135 0.0924h-0.05652zm-54.625 0.72865 0.02602 4e-3 -0.023284-3e-3zm-13.726 1.7836 6.825e-4 7e-3h-6.825e-4c3.75e-5 -2e-3 6.75e-5 -5e-3 0-7e-3zm80.651 0.18123v0.13901h-0.10341c0.03545-0.0458 0.07007-0.0921 0.10341-0.13901zm-8.5873 0.75535h4e-3c-4.51e-4 2.5e-4 -6.63e-4 6.6e-4 -0.0013 1e-3h-3.44e-4v3.5e-4h-3.38e-4v-3.5e-4h-6.89e-4l-3.38e-4 -3.4e-4 -3.45e-4 -3.4e-4h-3.44e-4zm7.3481 0.36535v0.0236c-0.0089-3e-3 -0.01782-7e-3 -0.0267-0.01 0.0089-5e-3 0.01789-9e-3 0.0267-0.0137zm-35.106 6.8619-0.03424 0.10409c0.0088-0.0293 0.0125-0.0514 0.02431-0.0856 0.0026-8e-3 0.0068-0.0118 0.0099-0.0185zm20.51 0.4537v0.039l-0.04009 0.0537c0.01338-0.0309 0.02683-0.0617 0.04009-0.0928z" fill="#c83771" stop-color="#000000" stroke-linejoin="round" stroke-width=".6626" style="paint-order:stroke fill markers"/><path d="m15.341 62.099c-0.43714-0.01399-0.87345 0.05931-1.2827 0.21366-1.2662 0.47741-2.0815 1.6959-2.1445 2.9882-1.0301 0.69899-1.9993 1.4941-2.8095 2.4821-2.9716 3.6239-3.7881 8.5732-2.1353 12.959 0.31972 0.84896 0.91538 1.4847 1.598 2.0034-0.082695-0.0032-0.15479-0.03068-0.23797-0.03253-1.4801-0.03291-3.0069 0.18177-4.5516 0.58757l-2.9273 0.0856h0.010615c-0.67346 0.01502-1.2379 0.27382-1.7254 0.6249-2.1505-3.51-6.129-5.5715-10.208-5.5843-0.76925-0.0025-1.5454 0.06429-2.3178 0.20476-1.1484 0.20888-2.2428 0.61947-3.2936 1.1323l-4.5294 0.59511c-0.04157 0.0055-0.08304 0.01205-0.12429 0.01951l-0.05307 0.01027h-0.0038c-1.6682 0.30341-2.836 1.7802-2.5718 3.548l0.01712 0.10923c-5e-3 -0.02751-0.0097-0.0548-0.01404-0.08218l2.7201 21.11c0.0058 0.0451 0.01248 0.0899 0.02055 0.13457 0.26676 1.4667 1.9519 2.7816 3.4775 2.6335 0.02679-3e-3 0.05343-6e-3 0.08012-9e-3l5.6193-0.72077c0.05112-6e-3 0.10205-0.014 0.15271-0.0233l0.03493-8e-3c1.8164-0.33014 2.725-1.8622 2.5831-3.4477-0.00308-0.0372-0.00698-0.0743-0.011642-0.11128l-0.3585-2.7033c0.26211-0.033 0.51544 0.0166 0.77795-0.0311 2.847-0.51781 5.2358-1.8162 6.943-3.6768l0.11368 3.5888v-0.0185c0.038385 1.7253 1.6933 3.0842 3.1515 3.1166 0.048317 6.6e-4 0.096546 4e-4 0.14484-1e-3l1.6151-0.0531-3.586 1.9555c-0.011695 7e-3 -0.02333 0.013-0.034926 0.0195-1.3841 0.78203-1.9928 2.2075-1.2827 3.8203 8.614e-4 2e-3 0.00186 5e-3 0.00272 7e-3l0.015405 0.0336c0.030712 0.0691 0.064458 0.13681 0.10101 0.20305l1.4806 2.6855 9.939e-4 4e-3c0.65357 1.1811 2.4847 1.897 3.8333 1.3032 0.00172-6.7e-4 0.00378-2e-3 0.0055-3e-3l0.032189-0.0144c0.078182-0.0347 0.15463-0.073 0.22907-0.11506l3.3881-1.9144c0.013159 1.4438 0.00722 3.0438-0.15271 4.3188-0.00239 0.0181-0.00451 0.0359-0.00649 0.0541-0.043202 0.41234-0.080528 0.94754 0.24071 1.6775 0.12216 0.27746 0.32827 0.56453 0.5708 0.81904l-1.685-0.0801c-0.074992-3e-3 -0.16663-5e-3 -0.28488 1e-3 -1.4536 0.0778-2.6093 1.3568-2.6725 2.6996l-0.00378 0.0774-0.42459-0.0568c-0.069151-0.01-0.13849-0.0164-0.20818-0.0205l-0.049304-3e-3c-0.0082-4.8e-4 -0.016459-6.6e-4 -0.024655-1e-3 -0.096587-5e-3 -0.26128 0.0475-0.38418 0.0583-0.4035-0.10621-0.77051-0.28945-1.219-0.31056-0.002187 6.6e-4 -0.004307 2e-3 -0.006494 3e-3 -0.72787-0.0333-1.4052 0.15903-2.0476 0.39342-0.25847-0.16538-0.51052-0.27336-0.717-0.33898-0.032169-0.0101-0.064372-0.0199-0.096901-0.0288-0.48018-0.13244-0.99316-0.21909-1.5323-0.24448-0.76952-0.0362-1.2144-0.0362-1.9915 0.16881l-0.82589 8e-3 0.069851 1e-3c-0.23002 3e-3 -0.43204 0.0699-0.64441 0.11505-0.27688-0.13705-0.57053-0.24534-0.88821-0.27564l0.054785 4e-3 -1.9466-0.19928c-0.046489-5e-3 -0.09303-8e-3 -0.1397-0.0103-0.40123-0.0198-0.79172 0.0791-1.1635 0.23284-0.38708-0.17011-0.76837-0.27504-1.0793-0.28968-0.32585-0.0154-0.32055-4e-3 -0.49957-1e-3 -0.03803 5.9e-4 -0.0873 2e-3 -0.12806 3e-3l0.0014-0.0311c0.06749-1.4338-1.1454-2.8936-2.6893-2.9663l-1.9709-0.0931c-0.07096-3e-3 -0.17076-5e-3 -0.28488 1e-3 -0.65307 0.0349-1.2268 0.33418-1.6874 0.75057-0.83097-0.46497-1.7261-0.80766-2.6879-0.85295-0.41262-0.0195-0.79091 0.0784-1.1817 0.13731l-1.6566-0.15922c-0.02499-3e-3 -0.04994-5e-3 -0.07499-7e-3l-0.01952-1e-3c-0.0181-1e-3 -0.03597-3e-3 -0.0541-4e-3 -0.0794-4e-3 -0.16983-5e-3 -0.28352 1e-3 -0.0011 6e-5 -0.0017-6e-5 -0.0027 0l-0.0024 1e-3c-1.3869 0.0767-2.5281 1.0612-2.6574 2.5513l-0.767 7.7295c-0.0042 0.0448-7e-3 0.0896-0.0089 0.13457-0.06078 1.2851 1.1546 2.7848 2.4705 2.957 0.0267 3e-3 0.05333 7e-3 0.08012 9e-3l2.0551 0.20579c0.05208 5e-3 0.10453 9e-3 0.15682 0.0106 2e-3 1e-4 0.0038-9e-5 0.0058 0l0.03047 1e-3c1.5183 0.0555 2.5033-0.92116 2.803-2.1483 0.17341-0.0245 0.34861-0.0276 0.51875-0.0657 0.2017 1.2958 1.2526 2.351 2.6054 2.4147l1.9658 0.0931c0.60931 0.0296 1.1592-0.18351 1.6395-0.49684 0.78457 0.45472 1.6223 0.75789 2.4267 0.79576 0.47998 0.0227 0.92815-0.0815 1.3847-0.15511l1.7586 0.18113c0.047338 5e-3 0.094893 9e-3 0.14244 0.0117 0.38198 0.0188 0.75663-0.0651 1.1132-0.20442 0.37757 0.22006 0.77231 0.38139 1.1594 0.3996 0.048281 2e-3 0.096509 3e-3 0.14484 3e-3l1.9093-0.0164c-0.034011-3.6e-4 -0.068102-1e-3 -0.10238-3e-3l0.1219 3e-3c0.77569 3e-3 1.4784-0.33501 1.999-0.85911 0.87856 0.60562 1.8722 1.0545 2.9793 1.1067 0.41275 0.0194 0.83603-0.0205 1.259-0.0921 0.031043 0.0145 0.073567 0.059 0.10375 0.0726 0.22815 0.10278 0.43294 0.1768 0.6249 0.23558 0.19196 0.0588 0.089816 0.11855 0.81528 0.15271h0.00139c0.45298 0.0212 0.91538-0.12089 1.3292-0.30679 0.23923 0.0807 0.47352 0.17527 0.73618 0.18763l1.9709 0.0931-0.00517-1e-3c0.34213 0.0168 0.66679-0.0518 0.97723-0.15135 0.32918 0.17276 0.69469 0.28827 1.0947 0.30816 0.052134 3e-3 0.10458 5e-3 0.15682 5e-3l1.9658-7e-3c0.04446-2.1e-4 0.08881-1e-3 0.1332-4e-3 0.58564-0.0315 1.0826-0.2296 1.5104-0.51498 0.51729 0.33646 1.0685 0.57042 1.5854 0.71425 0.07342 0.0206 0.08577 0.0185 0.1486 0.0311 0.10132 0.47917 0.27461 0.95176 0.54101 1.2748 0.39007 0.47298 0.78716 0.68829 1.0974 0.82965 0.0095 5e-3 0.0189 8e-3 0.02842 0.0126l1.3683 0.60401c-0.02005-9e-3 -0.04025-0.0186-0.05992-0.0281l0.06985 0.0322c0.3507 0.15889 0.75554 0.25964 1.1299 0.27735h0.0052c0.98659 0.0445 1.9667-0.59702 2.2907-0.92143 0.03053-0.0303 0.06037-0.0617 0.08937-0.0935 2.1856-2.4148 3.5305-4.1681 4.3613-5.3991 0.3702-0.54856 0.60947-0.95968 0.8074-1.3251l1.4559 3.6429c0.48853 1.2382 1.9909 1.9012 2.7502 1.9374l0.03219 1e-3c0.04999 3e-3 0.09991 4e-3 0.14998 4e-3l0.97347-4e-3c0.0078 3e-5 0.01552 3e-5 0.02328 0 0.32526-4e-3 0.54374-0.15908 0.81014-0.24311 0.30802 0.0928 0.6527 0.2187 0.8437 0.2277l0.06609 3e-3c0.04655 3e-3 0.09309 4e-3 0.1397 4e-3l0.73892-4e-3c0.52308-1e-3 1.0251-0.18736 1.4778-0.42732 0.44371 0.38252 0.97946 0.67281 1.6203 0.70297 0.04998 3e-3 0.10024 5e-3 0.15032 5e-3l1.9658-7e-3c0.04446-2e-4 0.08881-1e-3 0.1332-4e-3 0.58548-0.0315 1.0827-0.22973 1.5104-0.51498 0.5173 0.33653 1.0685 0.57042 1.5854 0.71427 0.36579 0.10268 0.71105 0.15009 0.73755 0.15134h0.0014c0.41272 0.0194 0.88382-0.12125 1.3214-0.31433 0.33666 0.18213 0.69985 0.30223 1.0728 0.31981l1.9569 0.0918c0.52385 0.0254 0.99819-0.15217 1.4337-0.39994 0.25572 0.15308 0.53457 0.35014 0.74166 0.43486 0.17677 0.0723 0.33161 0.12344 0.46602 0.16299 0.06721 0.0198 0.12797 0.0359 0.19415 0.0517 0.03309 8e-3 0.0661 0.0162 0.11505 0.026 0.04894 0.01-0.06695 0.0274 0.39993 0.0493h0.0052c0.66235 0.0298 1.4745-0.24075 1.9853-0.6201l0.0038-3e-3 0.96799-0.72077c0.01478-0.0111 0.02962-0.0221 0.04417-0.0335 0.1138-0.0886 0.19918-0.257 0.30543-0.38042-0.14129 0.29695-0.25867 0.65078-0.27975 1.0947-0.03136 0.66312 0.25471 1.4593 0.64476 1.9322 0.39004 0.47295 0.78719 0.68931 1.0974 0.83068 0.0095 5e-3 0.0189 9e-3 0.02842 0.013l1.3436 0.59271c-0.01179-5e-3 -0.02359-0.0111-0.03525-0.0168l0.05102 0.0233c0.35496 0.16376 0.76733 0.26686 1.1484 0.28488h0.0053c0.9866 0.0445 1.9677-0.596 2.2917-0.92039 0.03008-0.0307 0.05944-0.062 0.088-0.0942 1.2105-1.3374 1.6648-2.0357 2.415-2.9909 1.0023 1.0332 2.3806 1.6901 3.8138 1.7576 1.2794 0.0603 2.4808-0.29875 3.6093-1.02 0.9353 0.80348 2.0828 1.22 3.1385 1.2697 0.48116 0.0226 0.92976-0.0827 1.3861-0.15648l1.7572 0.1825c0.04691 5e-3 0.09397 8e-3 0.14108 0.0103 1.3929 0.0684 2.7716-1.0132 2.9625-2.4718 0.0033-0.0271 0.0066-0.0543 0.0089-0.0815l0.50471-5.0861c0.0046-0.0474 0.0081-0.0946 0.01027-0.1421 0.04963-1.1018-0.83669-2.3953-2.0859-2.7954 1.216 0.0556 2.4763-0.15663 3.736-0.51635 0.5453 0.37937 1.0818 0.68693 1.5634 0.90842 0.43641 0.20066 0.82829 0.34774 1.1673 0.45438s0.34482 0.18796 1.1118 0.23009c0.78056 0.0429 1.6439-0.26012 2.1935-0.66907s0.86016-0.84979 1.1026-1.2525c6e-3 -0.0103 0.01219-0.0207 0.01816-0.0311l1.6073-2.7554c-0.02299 2.1742-0.04599 4.4601-0.07122 6.1966-3.9e-4 0.0263-3.9e-4 0.0524 0 0.0787 0.02399 1.5205 1.3417 3.2229 3.1461 3.322 0.0053 4.6e-4 0.0106 6.6e-4 0.01577 1e-3l0.0387 1e-3c0.72788 0.04 1.7284 0.0171 2.9197 8e-3 0.99293-8e-3 1.9297-0.0187 2.2144-0.0223-0.03121-2e-3 -0.06069-3e-3 -0.08834-5e-3l0.176 4e-3s-0.03075 3.3e-4 -0.08766 1e-3c0.39433 0.0224 1.0713 0.0441 1.9178-0.46841 0.91355-0.55306 1.48-1.7982 1.5268-2.6506l7e-3 -0.13046c5e-3 -0.0771 6e-3 -0.15457 4e-3 -0.23181-0.0535-1.6782-0.0459-3.787-0.0466-5.8093 1.2909-0.30112 2.2559-1.3581 2.4462-2.5794 4e-3 -0.0237 7e-3 -0.0475 0.0103-0.0712l0.34412-2.6917 2.1524 11.673c5e-3 0.0272 0.0107 0.0544 0.0168 0.0815 0.35642 1.6396 2.0123 2.711 3.5703 2.5058 0.0481-7e-3 0.0961-0.0142 0.14381-0.0233l5.2454-0.98716c-0.0284 5e-3 -0.0568 9e-3 -0.0856 0.0126l0.11197-0.0185c1.3726-0.239 2.3097-1.4803 2.5372-2.7122 1.4527 0.65921 2.9265 1.3199 3.7905 1.7353 0.53732 0.26422 1.1516 0.4572 1.9788 0.34823 1.3094-0.1725 2.2458-1.2412 2.6023-1.8973 0.0106-0.0193 0.021-0.0386 0.0311-0.0583l0.63277-1.2385c1.9202 2.0118 4.6274 3.3206 7.5772 3.4826 1.2477 0.0685 2.5469-0.15289 3.8425-0.52286 0.54529 0.37936 1.0804 0.6883 1.5621 0.90978 0.43641 0.20066 0.82966 0.34636 1.1686 0.453 0.33898 0.10665 0.34312 0.18796 1.1101 0.2301 0.78055 0.0429 1.6456-0.26011 2.1952-0.66906 0.54958-0.40895 0.85879-0.84979 1.1012-1.2525 6e-3 -0.01 0.0122-0.0199 0.0182-0.0298l1.8466-3.1628c5e-3 -8e-3 9e-3 -0.0154 0.013-0.0233 0.14755-0.25861 0.38549-0.47301 0.43623-1.3967 0.0603-1.0973-0.56935-2.0089-0.98477-2.4006-0.22746-0.2145-0.32471-0.24435-0.47765-0.34139-0.0341-0.15834-0.0848-0.54313-0.0517-1.1454 0.0771-1.4037 0.54907-3.6856 1.0625-6.124 0.0274-0.13178 0.0447-0.26551 0.0517-0.39994l8e-3 -0.13183v-1e-3c0.0367-0.67234-0.17017-1.6418-0.82315-2.3708-0.65301-0.72907-1.5428-1.0535-2.3051-1.1546h-1e-3l-2.1822-0.31057c0.57882-0.65736 1.1109-1.3338 1.5672-1.9853 0.50155-0.71605 0.92424-1.3986 1.258-2.0072 0.33378-0.60858 0.5716-1.0215 0.76734-1.7613 0.33064-1.2497-0.0201-2.4842-0.55504-3.3039-0.53494-0.81965-1.1835-1.3775-2.1315-1.7251-0.0121-0.0046-0.0242-0.0084-0.0363-0.01266l-0.70913-0.24722c0.11522-0.58767 0.0834-1.0999-0.12943-1.6552-0.24075-0.62818-0.81243-1.3561-1.6538-1.7031-0.0103-0.0046-0.0207-0.0087-0.0311-0.01299-0.59311-0.23558-1.8941-0.79408-2.3708-1.0043-0.12239-0.054-0.24885-0.09844-0.37802-0.1332l-0.0284-0.0079c-4e-3 -6.62e-4 -8e-3 -2e-3 -0.0117-0.0027-0.34391-0.09084-0.66813-0.11336-0.9745-0.09176-6.6e-4 5.3e-5 -2e-3 -5.9e-5 -3e-3 0-0.91464 0.0646-1.7978 0.3535-2.4304 1.5764-8e-3 0.0163-0.0163 0.03247-0.0243 0.04897-0.0162 0.03313-0.0576 0.10919-0.0753 0.14484-1.382-0.34973-2.9832 0.46254-3.4823 1.8326-3e-3 0.0086-6e-3 0.01736-9e-3 0.02604l-0.72213 2.0486c-0.0223 0.06308-0.0421 0.12683-0.0596 0.19141l-8e-3 0.02843c-6.6e-4 0.0033-2e-3 0.0072-3e-3 0.0106-0.23585 0.89172 0.0668 1.8426 0.63551 2.5598-0.6293 1.1074-1.3383 2.3792-1.7641 3.0837-0.0958 0.17084-0.17211 0.35183-0.2277 0.53963-0.0413 0.0995-0.0651 0.0979-0.0959 0.21367-0.37933 1.434 0.28804 2.6392 1.4419 3.2806-1.3495 0.67035-2.4956 1.5898-3.3416 2.6451-0.38901 0.48531-0.58689 1.0252-0.87862 1.5415-0.13856-0.27743-0.30328-0.53024-0.47834-0.73789l0.0278 0.0325-2.6917-3.3131-1e-3 -1e-3c-0.0558-0.0687-0.17039-0.10467-0.23557-0.17051 2.7862-1.8187 5.2297-4.2462 6.6054-7.4351 0.57638-1.336 0.33202-2.8098-0.19689-3.7826-0.52891-0.97275-1.2158-1.6345-2.2298-2.0719-2e-3 -6.63e-4 -5e-3 -2e-3 -7e-3 -0.0027l-0.0764-0.03253c-0.0679-0.02922-0.13705-0.05533-0.20715-0.07875l-9.7306-3.2265c-0.0107-0.0033-0.0217-0.0069-0.0325-0.01027-0.28829-0.09138-0.56377-0.13039-0.82178-0.13696-1.1406-0.02796-2.2454 0.47937-2.8067 1.7805-2e-3 4e-3 -3e-3 0.0078-5e-3 0.01166l-0.013 0.02982c-0.0288 0.06833-0.0545 0.13801-0.0774 0.20853l-0.87245 2.6465-1e-3 4e-3c-0.41496 1.266 0.29923 3.0767 1.636 3.6535l0.0154 7e-3c0.0853 0.0374 0.17245 0.0705 0.26126 0.0986l2.9625 0.9406c-0.87346 0.81029-1.7975 1.6776-2.6311 2.2777-0.0143 0.0107-0.0287 0.0216-0.0428 0.0325-0.0136 0.0102-0.03 0.0435-0.0438 0.0541l-0.0144-0.0764c-6e-3 -0.0333-0.013-0.0666-0.0205-0.0996-0.29554-1.3121-1.5579-2.565-3.1902-2.5194-0.11304 3e-3 -0.23207 0.0129-0.35576 0.0308l-0.027 4e-3c-0.0416 5e-3 -0.0831 0.0121-0.1243 0.0195l-1.712 0.31296c0.26761-0.61031 0.55817-1.2282 0.76597-1.8117 0.32775-0.9202 0.57915-1.7821 0.75707-2.5325 0.17792-0.75034 0.30706-1.2712 0.29892-2.0695-0.0139-1.3528-0.7101-2.4982-1.483-3.181s-1.5943-1.0676-2.6413-1.1543c-0.0133-0.0013-0.0267-0.0027-0.0401-4e-3l-1.1351-0.07636c2.1e-4 -0.04844 7e-3 -0.01054 7e-3 -0.06985v-0.0027c-8e-3 -0.72704-0.20685-1.2638-0.6136-1.8155-0.40675-0.55166-1.1617-1.109-2.0784-1.2217-0.0116-0.0013-0.0233-0.0027-0.0349-4e-3 -0.72976-0.08003-2.314-0.2948-3.5556-0.34584-1.2415-0.05102-2.3401 0.47705-2.7263 2.3027-0.0033 0.01809-7e-3 0.03598-0.01027 0.05413-0.02001 0.10567-0.07202 0.33687-0.0969 0.46226h-0.0079c-0.06934-0.0046-0.13867-0.0074-0.20818-0.0068h-0.03383c-1.4533 0.01597-2.8155 1.2518-2.9351 2.7348-4.9e-4 0.0091-6.63e-4 0.01796-0.0013 0.02703l-0.12156 1.7288c-0.36243-0.59441-0.81136-1.0954-1.1556-1.2758-0.35417-0.18558-0.43438-0.18458-0.57216-0.22154-2e-3 -0.0088-0.0066-0.03021-0.02193-0.06573 1.1263-0.55615 1.8196-1.7266 1.7977-2.9081-5.49e-4 -0.02419-0.0013-0.04844-0.0026-0.07259l-0.20578-4.4791c-0.0027-0.06315-8e-3 -0.12589-0.01544-0.18867-0.15873-1.3374-1.1916-2.4796-2.5883-2.741-0.02021-0.33489-0.03234-0.66564-0.05579-0.99675-0.0033-0.04151-0.0074-0.08265-0.01266-0.12395-0.07558-0.63643-0.34242-1.4903-1.069-2.151-0.29864-0.27158-0.65752-0.425-1.0122-0.55915 0.16641-0.12057 0.38564-0.1921 0.50882-0.33898 0.0053-0.0064 0.0102-0.01303 0.01537-0.01952 0.9253-1.1241 1.3954-1.6927 1.685-2.0575 0.14478-0.18243 0.24212-0.2983 0.39445-0.53964s0.39963-0.93383 0.4311-1.1584c0.16739-1.1943-0.65427-2.3797-1.2176-2.7978-0.0033-0.0022-6e-3 -0.0043-0.0092-0.0065-0.84436-0.62154-1.7396-1.0628-2.5636-1.434-0.28429-0.12806-0.53296-0.2241-0.78686-0.32495l0.16949-1.2138c0.19897-1.4185-0.89166-3.0628-2.463-3.283l-2.7239-0.38178c-0.05778-0.0081-0.1551-0.02077-0.29516-0.02602-0.0027-9.1e-5 -0.0027 8.8e-5 -0.0053 0-1.4755-0.05276-2.7776 1.0302-2.9841 2.503l-1.6333 11.656c-0.17795 1.2686 0.63316 2.4526 1.6929 2.9817 0.0033 0.04708 7e-6 0.1491 0.0013 0.17737 3.65e-4 0.01165 6.63e-4 0.02328 0.0013 0.03493 0.01537 0.31704 0.03684 0.57777 0.05447 0.88376-0.3644 0.14417-0.68651 0.34395-0.9745 0.60435-0.30134-0.52346-0.66238-0.91006-0.98339-1.144-0.51338-0.37412-1.0169-0.6-1.5713-0.79336-1.1088-0.38673-2.4222-0.59662-3.9302-0.56532-0.34822 0.0072-0.71285 0.0385-1.0793 0.07499 2.1226-1.4118 4.3871-3.2806 5.3293-6.238 0.0013-0.0034 0.0027-0.0068 4e-3 -0.01027 0.02432-0.07739 0.10553-0.29168 0.15819-0.66633v-0.0014c0.16562-1.1817-0.26427-2.3359-0.87485-3.0776-0.6102-0.74126-1.3357-1.2034-2.2832-1.408l-0.0013-0.0014-3.0283-0.6653c-0.11804-0.20296-0.25541-0.44602-0.60709-0.75159-0.3949-0.34312-1.067-0.61477-1.4792-0.67318-0.11077-0.01563-0.2173-0.02512-0.3157-0.02842h-0.0013c-0.66757-0.02188-1.208 0.18535-1.5665 0.38281l-0.08868 0.04931c0.02259-0.01341 0.04618-0.0268 0.07054-0.04041-0.91652 0.47865-2.3686 1.1047-3.3669 1.2919l0.0068-0.0014c-0.81944 0.15126-2.1886 1.1574-2.3684 2.441-0.1297 0.92545 0.06751 1.284 0.28591 1.7377l0.89437 1.9969c0.01802 0.03972 0.03691 0.07901 0.05685 0.11779 0.16064 0.31509 0.51026 0.60874 0.85808 0.87862-0.09826 0.0485-0.20842 0.15185-0.30269 0.19414-0.0544 0.02449-0.108 0.05097-0.16059 0.0791-0.47691 0.2541-1.4429 0.88966-1.6306 2.2284-0.10764 0.76928 0.30503 1.7988 0.57319 2.1548l1.1919 1.597c0.0027 0.0034 0.0053 0.0068 0.0079 0.01027 0.28035 0.37172 1.0099 0.91123 1.7679 1.1053-0.31686 0.25035-0.64857 0.47398-0.94231 0.76357-0.21228 0.20928-0.37367 0.47756-0.56806 0.70913-0.91793-1.854-2.8964-3.6627-5.7422-4.4595 0.51768-0.8847 0.50875-1.8322 0.32358-2.4034-0.03452-0.10644-0.09074-0.18201-0.12943-0.27804 0.50288-0.19602 0.97925-0.49294 1.36-0.99778l1.2231-1.5648c0.0096-0.01199 0.01902-0.02413 0.02843-0.0363 0.88208-1.1694 0.65238-3.099-0.40507-4.0442-0.04367-0.03843-0.08844-0.07515-0.13457-0.1106l-5.7734-4.5075c-0.01157-0.0092-0.0232-0.01808-0.03493-0.02705-0.51406-0.38772-1.1521-0.6023-1.7898-0.60572-0.82189-0.0044-1.6634 0.35677-2.2311 0.98237-0.0484 0.0533-0.09446 0.1083-0.13833 0.16538l-1.2361 1.61c-0.0052 0.0069-0.01027 0.01396-0.01541 0.02089l-0.02055 0.02705c-0.55908 0.74202-0.68898 1.5418-0.55128 2.2777-0.61533-0.09534-1.2527-0.09496-1.7031 0.11505-0.31238 0.14564-0.32142 0.25958-0.49204 0.40644-0.44655-3.2514-3.21-5.7212-6.463-5.7343-0.22086-8.62e-4 -0.44441 0.0091-0.67009 0.03116-3.6027 0.35295-6.2931 3.6275-5.9401 7.2303 0.12878 1.3145 0.73943 2.4255 1.523 3.3905-0.28506 0.60511-0.44948 1.2366-0.42185 1.7459 0.0017 0.02807 0.0039 0.05623 0.0065 0.08423 0.20398 2.3527 0.3867 5.2532 0.47492 7.8436 0.08586 2.521 0.04894 4.8501-0.05855 5.7377 0.0011-2.45e-4 0.0021-4.31e-4 0.0027-3.45e-4l3.42e-4 3.45e-4h3.43e-4l3.42e-4 3.44e-4h3.42e-4v3.38e-4h3.43e-4v6.89e-4c0.0011 0.0053-0.0067 0.02326-0.01199 0.05751 0.0025-0.01882 5e-3 -0.0385 0.0075-0.0589-0.02529 6e-3 -0.16579 0.10307-0.73207 0.15853-0.15952 0.01564-0.2205 0.01305-0.1671 0.01537-0.12519-0.0053-0.25059-2e-3 -0.37528 0.01027l-0.10615 0.0106c-0.27419 0.02703-0.5184 0.10828-0.76597 0.18353 0.07324-1.2904-0.07799-2.6414-0.51259-3.9884-0.81048-2.5121-2.7781-4.8949-5.786-6.3647l-1.408-3.735 4.7454-1.7884h0.0014c2.4165-0.91187 3.6691-3.6827 2.7578-6.0993-1.6527-4.3857-5.5306-7.5648-10.155-8.3264-0.57731-0.09508-1.1574-0.15232-1.7353-0.16984-0.73762-0.02236-1.4704 0.02314-2.1924 0.12292-0.58391-0.5614-1.288-0.97947-2.125-1.0067zm51.265 6.7739c0.0053-3e-3 0.01272-0.0059 0.01816-0.0089l0.02776-0.01541c-0.01517 8e-3 -0.03041 0.01621-0.04585 0.02431zm50.622 60.685c-9e-3 1e-3 -0.0174 5e-3 -0.0264 6e-3l0.0568-0.0106zm-59.323 7.6888c-0.0053-3e-3 -0.01067-4e-3 -0.01577-7e-3l0.05274 0.0233zm-39.713-1.8624c-0.0025-1e-3 -0.0051-2e-3 -0.0075-3e-3l0.02465 0.0109zm-22.431-3.696c-0.00658-2e-5 -0.012929 6.6e-4 -0.019518 6.6e-4l0.047595-3.4e-4zm-19.621-0.81219c0.0036 2.4e-4 0.0073 5.9e-4 0.01096 1e-3h0.01027c-0.0072-2.8e-4 -0.01405-6.6e-4 -0.02123-1e-3zm-0.10409-46.912c-0.0015-0.0091-0.0017-0.01794-0.0031-0.02705l-0.0038-0.02534zm88.981-1.7425c-6e-3 0.0035-0.03048 0.02601-0.03492 0.02842l-0.12156 0.06026c0.05288-0.02849 0.10144-0.06299 0.15648-0.08868zm-4.1555 13.671c0.0081 0.03028 0.0163 0.06063 0.02465 0.09074h-0.2099c0.06175-0.03041 0.12325-0.06089 0.18524-0.09074zm-14.486 1.2118c-0.0024 6.36e-4 -0.0054 0.0013-0.0072 2e-3 -5e-3 0.0013-0.01032 0.0013-0.01541 0.0027zm-1.8692 0.23113c0.05153 0.08119 0.11569 0.1555 0.16949 0.23558-0.08723-0.0013-0.18132 0.0112-0.27324 0.01816 0.03915-0.08065 0.06647-0.17146 0.10375-0.25372zm11.959 0.94608c-0.05546 0.0046-0.09766 6e-3 -0.13388 0.0053 5.74e-4 -0.0013 0.0015-0.0027 0.0021-4e-3zm-9.508 4.013c0.01633 7e-3 0.03284 0.0133 0.0493 0.0196-8.61e-4 5e-5 -0.0019-5e-5 -0.0027 0-0.0224 6.6e-4 -0.01202-7e-3 -0.03355-7e-3zm48.332 2.7297c0.02982 0.0422 0.06069 0.0838 0.09245 0.1243-0.03094 0.0273-0.06182 0.0547-0.09245 0.0825zm-2.4417 3.7449h0.0076c-0.0027 6e-3 -0.0053 0.0123-0.0076 0.0185zm0 1.0748 0.39719 0.0421c-0.0275-3e-3 -0.055-5e-3 -0.08252-7e-3 -0.10723-6e-3 -0.2116 5e-3 -0.31467 0.0215zm-0.66872 0.92964h0.0387c-0.04207 0.16091-0.07904 0.32516-0.10615 0.49615zm-75.177 1.5364 0.76768 2.6828c7e-3 0.0239 0.01425 0.0476 0.02191 0.0712l0.0038 0.013c0.53418 1.7407 2.708 2.6909 4.2216 2.2894 0.0052-1e-3 0.01058-3e-3 0.01575-4e-3l10.322-2.8071c0.02904-8e-3 0.05786-0.016 0.08663-0.0246l0.0517-0.0168c0.57203-0.17636 1.1597-0.55833 1.6607-1.1324 0.0069 7e-3 0.01361 0.0141 0.02055 0.0209-0.0097-9e-3 0.13184 0.1453 0.44924 0.37391-0.07711 0.34041-0.21205 0.66258-0.14758 1.0341 0.09424 0.54323 0.35758 1.0284 0.64168 1.3731l-0.0038-4e-3 2.2246 2.7153c0.0022 3e-3 0.0043 6e-3 0.0065 9e-3 0.65961 0.79754 1.7207 1.2494 2.8327 1.0563h0.0014c0.59573-0.10357 0.83905-0.28296 0.91252-0.32631 2.2026-1.0844 4.2912-2.5562 6.2883-4.2099l-0.27598 5.0084-0.02431-1e-3c-0.06845-3e-3 -0.16908-5e-3 -0.28728 1e-3l-0.0041-1e-3h-3.42e-4c-6.6e-4 1.6e-4 -0.0018 6.6e-4 -0.0024 1e-3l-3.42e-4 3.5e-4h-6.85e-4c-0.94522 0.0539-1.7063 0.57649-2.1781 1.3032l-1.698-0.16162c-0.03833-3e-3 -0.0766-6e-3 -0.11505-8e-3l-0.03903-3e-3c-0.0078-4.8e-4 -0.01552-6.6e-4 -0.02328-1e-3 -0.08459-3e-3 -0.17654-3e-3 -0.27701 1e-3l0.0079 8e-3c-0.0069-3e-3 -0.01364-5e-3 -0.02055-8e-3 -0.0969 5e-3 -0.21272 0.0868-0.31707 0.10889-0.70857-0.84149-1.7243-1.4192-2.8886-1.4741-1.6827-0.0792-3.204 0.93365-3.8877 2.3941-0.0081-4.1e-4 -0.0058-2e-3 -0.01404-3e-3l0.0024 3e-3c-0.0017-6.6e-4 -0.0034-2e-3 -0.0052-3e-3 -0.4016-0.0188-1.1141 0.0429-1.7768 0.49718-0.16809 0.11522-0.2641 0.27206-0.3948 0.4126l-0.41945-1e-3c-0.53146-0.48242-1.1604-0.85917-1.7922-0.8889-0.0056-2e-5 -0.01117-2e-5 -0.01678 0-0.37132-0.015-0.64452 0.0311-0.88273 0.0866-0.03512 8e-3 -0.07003 0.0173-0.10478 0.027l-1.4546 0.40405c-0.016 4e-3 -0.03202 8e-3 -0.04794 0.0126-0.35793 0.10671-0.81269 0.28036-1.284 0.73652-0.1199 0.11605-0.20108 0.29586-0.30269 0.4489-0.32051-0.40091-0.6448-0.63118-0.89026-0.76871l-1.3433-0.77658c0.03016 0.019 0.06039 0.0386 0.0904 0.0586l-0.1284-0.0801c-0.4195-0.25749-0.86121-0.41889-1.4439-0.44684-0.51262-0.0244-1.0464 0.18511-1.5025 0.4465-0.4744-0.46161-1.0838-0.84038-1.8726-0.88l0.0014-1e-3c-3.98e-4 -3e-5 -0.0012-1e-5 -0.0014 0h-3.42e-4c-1.93e-4 0-6.3e-4 2e-5 -9.94e-4 0-0.0023-1.2e-4 -0.0041-1e-3 -0.0065-1e-3l-0.0024 3e-3c-0.46834-0.0211-0.72151 0.0535-0.76494 0.0623-0.0338 7e-3 -0.06752 0.0148-0.10101 0.0233l-0.18114 0.0439c-0.08383-0.17306-0.121-0.3452-0.25372-0.51361-0.5411-0.68656-1.3988-1.0135-1.9695-1.0741-0.0099-6.6e-4 -0.01987-2e-3 -0.02979-3e-3l-1.8494-0.176c-0.03833-3e-3 -0.07661-6e-3 -0.11505-8e-3l-0.03903-3e-3c-0.0078-4.8e-4 -0.01552-6.7e-4 -0.02328-1e-3 -0.08456-3e-3 -0.17666-3e-3 -0.27701 1e-3l0.0079 8e-3c-0.0069-3e-3 -0.01364-5e-3 -0.02055-8e-3 -0.09687 5e-3 -0.21275 0.0864-0.31707 0.10854-0.26982-0.32044-0.60369-0.56512-0.95772-0.79199 0.43374-0.0361 0.88047-0.0947 1.1594-0.21743h0.0014c0.47834-0.21062 0.82193-0.47723 1.1118-0.78035 0.28652-0.29961 0.55048-0.5519 0.7622-1.3303 0.52548-1.5735 0.88215-3.2291 1.105-4.9084zm7.5809 10.448c0.0089 5e-3 0.01819 0.01 0.02705 0.015l-0.03972-0.0229zm44.131-9.5607h0.02604c-0.0013 0.0124-0.0033 0.025-0.0046 0.0373-0.0072-0.0123-0.01411-0.0249-0.0212-0.0373zm79.1 7.533 0.0568 0.0322c0.0246 0.0148 0.0106 0.0142 0.0325 0.0311-0.0193-0.0107-0.0729-0.0539-0.0894-0.0633zm-88.659 3e-3c0.01709 0.0307 0.03432 0.0618 0.05135 0.0924h-0.05652zm-54.624 0.72865 0.02602 4e-3 -0.023284-3e-3zm-13.726 1.7836 6.852e-4 7e-3h-6.852e-4c3.74e-5 -2e-3 6.74e-5 -5e-3 0-7e-3zm80.651 0.18122v0.13902h-0.10341c0.03545-0.0458 0.07007-0.0921 0.10341-0.13902zm-8.5873 0.75536h4e-3c-4.51e-4 2.5e-4 -6.63e-4 6.6e-4 -0.0013 1e-3h-3.45e-4v3.5e-4h-3.38e-4v-3.5e-4h-6.89e-4l-3.38e-4 -3.4e-4 -3.44e-4 -3.4e-4h-3.45e-4zm7.3481 0.36535v0.0236c-0.0089-3e-3 -0.01782-7e-3 -0.0267-0.01 0.0089-5e-3 0.01789-9e-3 0.0267-0.0137zm-35.106 6.8619-0.03424 0.10409c0.0088-0.0293 0.0125-0.0514 0.02431-0.0856 0.0026-8e-3 0.0068-0.0118 0.0099-0.0185zm20.51 0.45369v0.039l-0.04006 0.0537c0.01337-0.0309 0.02683-0.0617 0.04006-0.0928z" fill="#fff" stop-color="#000000" stroke-linejoin="round" stroke-width=".6626" style="paint-order:stroke fill markers"/><g transform="matrix(.6626 0 0 .6626 -9.6598 20.951)"><path transform="rotate(-23.764)" d="m98.694 121.4c-0.19156-0.093-0.42819-0.0273-0.54252 0.15751l-9.3455 15.107c-0.12195 0.19713-0.04952 0.44049 0.14761 0.56244l3.5306 2.1841c0.19713 0.12195 0.42932 0.0672 0.55127-0.12994l4.4012-7.1144c0.82802 1.3051 2.0642 3.4323 2.6166 4.5422 0.0563 0.10919 0.14834 0.24057 0.27379 0.31817 0.12544 0.0776 0.28443 0.10139 0.46272 0.0135 3.9267-1.9815 4.0645-2.0446 4.1643-2.2059 0.0887-0.14336 0.0769-0.32437-0.0537-0.55384-1.0381-1.8068-3.4444-4.2862-3.982-4.6188-0.17921-0.11086-0.37353-0.15668-0.60984-0.0551l-1.7298 0.71377 3.8023-6.1466c0.12195-0.19713 0.0786-0.44746-0.11856-0.56941l-3.5308-2.1836c-0.01232-8e-3 -0.02482-0.0149-0.03759-0.0211zm-43.465-16.572c-0.13596-0.0607-0.2953-0.0646-0.44394 2e-3l-2.6872 1.4723-0.04572 0.0256c-0.22861 0.12782-0.29648 0.43598-0.19152 0.67737l1.5264 2.8375-5.0985 2.8504-2.3301-3.7385c-0.18902-0.28442-0.46612-0.18952-0.67187-0.0745l-2.5723 1.6782c-0.21583 0.15069-0.31934 0.44875-0.19153 0.67737l0.02561 0.0457 7.2692 11.659c0.1406 0.25147 0.46121 0.34229 0.73555 0.18891l2.5366-1.6883c0.27433-0.15338 0.26572-0.59884 0.1379-0.82745l-2.4934-3.9769 4.8463-2.7097 1.514 2.8145 0.02561 0.0457c0.12782 0.22861 0.44828 0.31913 0.67689 0.19131l2.7003-1.4496c0.25147-0.1406 0.35509-0.43837 0.22457-0.72549l-5.2339-9.7368c-0.06151-0.11002-0.15329-0.1916-0.25903-0.23883zm21.678 11.751c-0.11282-0.0542-0.23478-0.0625-0.35198-0.0483-1.7618 0.12426-4.4444 0.17474-6.6962-0.35098-0.19455-0.046-0.36876-5e-3 -0.46854 0.1562-0.04434 0.0717-0.07491 0.20137-0.06971 0.35326l0.02264 3.4085c0.01458 0.25681 0.12458 0.39951 0.30379 0.51037 0.39426 0.2439 2.0577 0.67845 4.9255 1.0897l1.9256 1.4141c0.20396 0.15095 0.27393 0.3182 0.18524 0.46157-0.28824 0.46594-6.4059 2.504-11.159 2.5371-0.28582 0.0214-0.45274 0.0916-0.53035 0.21707-0.05543 0.0896-0.0641 0.1834-0.02998 0.3284l0.67943 2.9479c0.04785 0.20304 0.12208 0.32329 0.24753 0.4009 0.86019 0.53213 12.416 0.71755 16.971-4.4432 0.08446-0.0964 0.16892-0.19253 0.23544-0.30005 0.66516-1.0752 0.11435-2.308-0.58715-2.8163l-5.3253-3.889c0.0063-1.5324 0.0028-1.807-0.23013-1.9511-0.01568-0.01-0.03167-0.0184-0.04779-0.0261zm33.658 46.322-0.0456-0.0195c-0.25103-0.10749-0.57989-0.0325-0.71347 0.15338-0.57342 0.83467-1.447 2.0543-2.4766 3.4498l-3.0643-1.6095-0.0461-0.0197c-0.25104-0.10749-0.53437-0.0128-0.66468 0.2285l-1.7297 3.2835-0.0195 0.0456c-0.10749 0.25103-3e-3 0.51124 0.21532 0.63177l2.4125 1.3033c-2.4046 3.1562-4.9688 6.4332-6.598 8.4091-0.01952 0.0456-0.0522 0.0583-0.07173 0.10393-0.09771 0.22821-0.0031 0.51181 0.20559 0.65516l3.4169 2.1114 0.0685 0.029c0.25103 0.10748 0.55726 0.0228 0.76909-0.15656 2.3169-2.1946 5.0053-5.2561 7.449-8.3145l2.5266 1.3519c0.24128 0.13028 0.25128 0.29628 0.19265 0.4332-0.0684 0.15975-2.6 3.6125-6.5333 7.0593-0.0946 0.0945-0.16651 0.19872-0.22514 0.33565-0.0879 0.20539-0.10732 0.44018 0.11437 0.61612l2.5305 2.1638c0.0815 0.0619 0.16278 0.12388 0.23124 0.15319 0.34232 0.14657 0.68138 0.0488 0.81175-3e-3 4.6605-2.4333 9.3035-8.169 9.9777-9.7437 0.61559-1.4377-0.3628-2.9366-1.305-3.448l-5.3826-2.8177c0.62556-0.89337 1.9776-2.8534 2.1046-3.15 0.10749-0.25103 0.0716-0.67104-0.25118-0.86325-1.0824-0.62549-3.091-1.8637-3.8996-2.372zm19.76 16.845c-0.18461-0.0869-0.42177-0.0688-0.57021 0.0691l-0.037 0.034-2.8145 3.126c-0.18401 0.20499-0.19428 0.48684-8e-3 0.6878l0.034 0.037 7.8974 6.9599 0.10207 0.10931c0.15278 0.16442 0.18275 0.30699 0.0183 0.45978-0.36538 0.33954-6.5671 2.9708-11.316 3.9791-0.19582 0.0457-0.33938 0.11112-0.43072 0.196-0.14616 0.13582-0.1528 0.31199-0.0731 0.54432l1.0092 3.2839c0.047 0.16055 0.13044 0.28741 0.23229 0.39702 0.22071 0.23751 0.53386 0.35481 0.69311 0.34301 6.1771-0.0206 12.573-1.6746 16.94-5.7321 1.2788-1.1884 0.78443-3.1122 3e-3 -3.9526l-0.0845-0.0914-11.478-10.373c-0.0353-0.0311-0.075-0.0566-0.11759-0.0766zm28.794 14.641c-0.17079-0.0613-0.36767-0.0448-0.48575 0.0504-0.68444 0.57649-1.7147 1.4104-2.9194 2.3576l-2.2333-2.09-0.0342-0.0275c-0.18864-0.15049-0.45242-0.13628-0.62006 0.0387l-2.2445 2.3906-0.027 0.0344c-0.15049 0.18863-0.12317 0.43551 0.0346 0.58948l1.7498 1.6761c-2.7894 2.1245-5.7432 4.3147-7.5949 5.6156-0.0274 0.0343-0.0584 0.0375-0.0858 0.0718-0.13681 0.17149-0.12256 0.43521 0.0216 0.60632l2.4156 2.6005 0.0513 0.0412c0.18863 0.1505 0.46927 0.15022 0.69182 0.0471 2.489-1.3258 5.4984-3.3034 8.2982-5.3354l1.8353 1.7448c0.17495 0.16764 0.14402 0.31172 0.0619 0.41461-0.0958 0.12004-3.0629 2.4676-7.2229 4.4808-0.10273 0.0584-0.18832 0.13038-0.27041 0.23327-0.12313 0.15434-0.19512 0.34967-0.0475 0.55162l1.648 2.437c0.0549 0.0718 0.10986 0.14403 0.1613 0.18507 0.25723 0.20522 0.56888 0.2012 0.6922 0.18733 4.5416-0.97907 9.8436-4.7753 10.788-5.9586 0.86192-1.0804 0.38046-2.5873-0.3022-3.2442l-3.9246-3.6642c0.74263-0.61426 2.3546-1.9663 2.5325-2.1892 0.1505-0.18863 0.21851-0.5554-0.0114-0.79493-0.77534-0.78695-2.1959-2.313-2.7654-2.9358l-0.0342-0.0275c-0.0472-0.0376-0.1012-0.0667-0.15813-0.0871zm-176.85-72.737c-0.49646-0.20836-1.0431-0.32337-1.6193-0.32337-2.3048 0-4.1433 1.8386-4.1433 4.1434s1.8381 4.1431 4.1429 4.1431 4.1433-1.8386 4.1433-4.1434c0-1.7286-1.0342-3.1946-2.5236-3.8197zm47.946 21.497c-0.02507-0.01-0.05069-0.0178-0.07732-0.0244-0.13316-0.033-0.27329-0.0394-0.43286 0.0341l-1.6152 0.70214c-0.12633 0.0535-0.34619 0.14051-0.39239 0.32694-0.0264 0.10654-0.0058 0.25311 0.09433 0.41927l1.2488 2.2601c0.10017 0.16616 0.23394 0.31223 0.42037 0.35843 0.10653 0.0264 0.25246 6e-3 0.41202-0.0676l1.7817-0.91507c0.1994-0.12019 0.34577-0.25379 0.38537-0.41359 0.033-0.13316 0.01257-0.27954-0.11422-0.45231l-0.06673-0.0729-1.195-1.7949c-0.13425-0.15694-0.27346-0.29321-0.44892-0.36027zm-3.3683-0.65473c-0.0408-0.02-0.08463-0.0366-0.13124-0.0482l-0.08008-0.0195-2.0034-0.24233c-0.30617-0.0193-0.54533 0.0344-0.62453 0.35403-0.0264 0.10653-0.01992 0.19308-0.02629 0.33286l0.05115 2.1896c0.0139 0.28612 0.16763 0.46516 0.54048 0.55756l0.18622 0.0464 1.6775 0.3027c0.46596 0.0589 0.69199-0.0547 0.76459-0.34769 0.01979-0.0799 0.03966-0.15991 0.03283-0.24641l0.04232-2.1095c-6.18e-4 -0.29697-0.144-0.62926-0.42962-0.7696zm-45.635-18.362c0.5209 0.22251 0.89154 0.74209 0.89154 1.3389 0 0.79571-0.65864 1.4539-1.4544 1.4539s-1.4541-0.65817-1.4541-1.4539 0.65837-1.4546 1.4541-1.4546c0.19893 0 0.38919 0.0415 0.56282 0.11568zm22.262 9.8233c-0.45947-0.21156-0.98276-0.35746-1.5534-0.43834l-13.648-1.8806-0.05422-6e-3c-0.95378-0.1121-1.5483 0.48114-1.6476 1.3259l-1.9413 14.166-0.0064 0.0542c-0.08327 0.70851 0.4071 1.2358 1.1124 1.3464l15.963 2.4011 0.081676 9e-3c0.68127 0.0801 1.4617-0.21464 1.6379-1.2438l1.9901-11.756 0.034849-0.29972c0.21379-1.819-0.5901-3.0428-1.9685-3.6775zm14.528 7.6674c-0.02498-0.0114-0.04673-0.0196-0.06504-0.0241-0.26633-0.066-0.54588 0.0347-0.83177 0.16171l-3.6496 1.7244c-0.12633 0.0535-0.17954 0.15344-0.20593 0.25997-0.0858 0.34622 0.10805 0.81843 3.3982 5.3369 0.1268 0.17276 0.23364 0.31205 0.39343 0.35165 0.13316 0.033 0.31283-7e-3 0.63856-0.18072l4.3278-2.1785c0.1928-0.0936 0.31256-0.23359 0.34555-0.36676 0.2877-1.161-3.5767-4.7306-4.3512-5.0845zm-42.593-16.207-13.939 1.18c-0.27438 0.0274-0.52106 0.27426-0.52106 0.54865l-5.43e-4 0.0551 0.41183 4.6098c0.02744 0.30182 0.24683 0.52106 0.54865 0.52106l0.05483-1.4e-4 11.524-1.1521 0.16428 6e-5c0.24694 0 0.38422 0.082 0.38422 0.32896 0 0.54876-2.524 7.5181-5.2679 12.1-0.10975 0.19206-0.16488 0.35654-0.16488 0.49373 0 0.21951 0.13707 0.35689 0.38402 0.46665l3.4025 1.6466c0.16463 0.0823 0.32918 0.10958 0.49381 0.10958 0.3567 0 0.68601-0.1646 0.79576-0.30179 3.9786-4.3353 7.1064-9.7406 7.8746-15.338-0.32926 0.0549-0.63102 0.0822-0.93284 0.0822-2.9908 0-5.2131-2.524-5.2131-5.1032zm22.603 13.072c0.41505 0.17347 0.65771 0.59348 0.58484 1.2134l-0.0099 0.0815-0.81186 5.2641-6.9749-1.0683 0.90192-6.4971 5.9969 0.92617c0.11241 0.0132 0.21727 0.0402 0.31305 0.0802zm13.303 7.502c-0.04486-0.0186-0.0905-0.0336-0.1371-0.0451-0.18643-0.0462-0.41307-0.0455-0.61929-0.0118l-4.1177 0.64713c-0.173 0.0137-0.25909 0.13386-0.29869 0.29366-0.072597 0.29296 0.00809 0.76539 1.8355 5.939 0.107 0.25267 0.14693 0.43211 0.38662 0.49151 0.13316 0.033 0.30637 0.0191 0.57245-0.028l4.8761-0.85523c0.29933-0.0672 0.45206-0.22697 0.50486-0.44003 0.29039-1.1718-1.8462-4.6412-2.627-5.711-0.11507-0.13452-0.24125-0.22422-0.37582-0.28009zm14.82 7.4264c-0.02234-9e-3 -0.04535-0.0166-0.06866-0.0223-0.0799-0.0198-0.1662-0.0126-0.25271-6e-3 -3.8172 1.259-13.057 3.068-17.641 3.6564-0.21283 0.0603-0.3853 0.18691-0.4381 0.39997-0.019796 0.0799-0.012884 0.16667 0.020577 0.25976l1.4213 5.1011c0.060335 0.21282 0.22012 0.36544 0.40655 0.41164 0.079903 0.0198 0.16647 0.0132 0.25298 6e-3 5.6827-0.23136 11.755-1.6947 17.46-4.2952 0.21943-0.087 0.37221-0.24706 0.41841-0.43349 0.0198-0.0799 0.0064-0.13954-4.17e-4 -0.22604l-1.2404-4.463c-0.05279-0.18623-0.18202-0.32642-0.33836-0.38952z" fill="#8820ac" stroke-linejoin="bevel" stroke-width="15.124" style="paint-order:stroke fill markers;white-space:pre"/><path d="m37.604 66.067a1.0583 1.0583 0 0 0-0.40721 0.0677 1.0583 1.0583 0 0 0-0.61702 1.3632l0.49816 1.3219c-2.1722 0.98855-4.1288 2.4695-5.6916 4.3754-3.5881 4.3757-4.5715 10.347-2.5761 15.642a3.1753 3.1753 0 0 0 4.0897 1.8516l10.875-4.0979 6.2032 16.461a1.0583 1.0583 0 0 0 1.3632 0.61754 1.0583 1.0583 0 0 0 0.61753-1.3637l-6.2032-16.461 10.873-4.0974a3.1753 3.1753 0 0 0 1.8516-4.0917c-1.9954-5.2953-6.6761-9.1331-12.26-10.053-0.69795-0.11494-1.3969-0.18221-2.0929-0.20309-0.69598-0.02088-1.3892 0.0043-2.0753 0.0739-1.0185 0.10327-2.021 0.30497-2.9941 0.59945l-0.49816-1.3219a1.0583 1.0583 0 0 0-0.95601-0.68471z" fill="#800066" stop-color="#000000" stroke-linejoin="round" style="paint-order:stroke fill markers"/><g stroke-linejoin="bevel"><path transform="rotate(-10.308)" d="m59.065 85.432c-0.19818-0.03687-0.39991-0.06424-0.60502-0.08115-3.3224-0.2739-6.2172 2.1797-6.4911 5.5021-0.27056 3.2819 2.1833 6.1769 5.5057 6.4508 3.2819 0.27056 6.1765-2.183 6.447-5.4649 0.25678-3.1148-1.8839-5.8537-4.8566-6.4068zm1.9896 13.472c-0.88804-0.11401-7.712-0.96179-7.7525-0.96513-0.48621-0.04008-0.98554 0.08154-1.1029 1.0101-0.67894 7.2459-2.0642 17.616-3.2629 21.27-0.64654 1.9047-2.7626 2.8316-5.1937 2.6312-0.2431-0.02-0.52691-0.0436-0.80719-0.10742l-0.162-0.0132c-0.44569-0.0367-1.0397 0.24062-1.2486 0.79451l-1.4483 3.7148c-0.0472 0.0777-0.05725 0.19921-0.06727 0.32077-0.03006 0.36465 0.05155 0.86126 0.48054 1.1006 1.6011 0.86626 3.6306 1.4823 5.7375 1.656 4.781 0.39415 10.077-1.4945 12.046-8.0629 1.7032-5.8153 3.6809-21.888 3.7043-22.172 0.04676-0.56724-0.28141-1.0429-0.92301-1.1774zm-79.397-10.042c-0.90544-0.16762-1.8341-0.25456-2.7742-0.25456-1.5855 0-3.2121 0.28437-4.8383 0.81288l-7.4397-0.36567-0.0814-9.8e-5c-0.4472 0-0.81279 0.36585-0.81279 0.7724l-1.6668 32.158c0 0.48786 0.32539 0.85363 0.81325 0.89428l8.5373 0.44764 0.08149-4.1e-4c0.40655 0 0.77214-0.36564 0.81279-0.81284l0.40659-8.4155c1.5449 0.4472 3.2118 0.69092 4.9193 0.69092 8.4562 0 13.579-5.2444 13.579-12.765 0-6.8655-5.1981-11.988-11.536-13.161zm147.39 27.522-7.6467-0.83926-0.16205-0.01c-1.055-0.0652-1.1838 0.70084-1.2545 1.1853-0.2296 1.7373-0.41396 3.3959-0.59043 4.9328l-2.5869-0.32291c-0.48692-0.0301-0.87455 0.31227-0.94271 0.75611l-0.90346 6.7058c-0.0276 0.44635 0.31279 0.87463 0.75663 0.94281l3.0331 0.35048c-0.43176 10.279 1.6199 13.99 8.0725 15.692 0.11923 0.0481 0.24082 0.0553 0.36255 0.0628 0.60866 0.0376 0.99892-0.34538 1.3712-1.0963l2.4262-4.9824c0.048-0.11922 0.0961-0.23818 0.10115-0.31933 0.0276-0.44635-0.44914-0.63867-0.88295-0.86914-1.7377-0.88134-2.0515-3.7115-1.8232-7.404l2.6706 0.28719 0.081 5e-3c0.44635 0.0276 0.79344-0.31764 0.8591-0.7209l0.90345-6.7058c0.0301-0.48692-0.31027-0.91521-0.75662-0.94281l-2.7896-0.33507c0.22709-1.6967 0.45881-3.4747 0.64532-5.1739 0.0426-0.68981-0.25646-1.1158-0.94376-1.199zm-52.015-5.8352c-8.018-1.272-12.89 3.3942-14.2 8.6849-1.4844 5.9986 1.5005 13.229 10.459 15.446l0.47399 0.11719c1.1445 0.28321 1.7939-0.14233 2.2658-0.69563 0.924-1.1953 2.6141-3.625 2.7118-4.0197 0.16602-0.67089-0.41704-1.192-0.96954-1.3287l-0.0789-0.0196c-0.28603-0.0289-0.60156-0.10705-0.87782-0.17542-4.933-1.2207-6.2037-4.8855-5.5103-7.6875 0.60548-2.4468 2.5942-3.7136 4.4885-3.2448 1.6575 0.41016 2.0945 1.8586 2.0066 2.2138-0.13672 0.5525-0.43228 0.56324-2.6016 0.52899-0.54233-9e-3 -0.90711 0.1104-1.0145 0.54451-0.03906 0.15786 0.07631 2.9084 0.22762 4.3279 0.04067 0.51264 0.16947 0.83768 0.8009 0.99393 2.0717 0.4289 5.0992 0.71771 7.1103 0.54527 2.5237-0.2131 3.6448-1.5275 4.094-3.3428 0.32227-1.3023 2.0465-10.131-7.7406-12.553-0.56237-0.13916-1.111-0.25021-1.6456-0.33501zm-50.596-8.4932c-4.5042-0.7429-9.0926 0.85974-12.248 5.6756-3.9217 5.9848-1.6885 13.184 3.8543 16.816 4.8286 3.1641 13.99 3.8692 18.335-2.7617 2.8967-4.4206 3.5215-12.42-3.9934-17.344-1.8702-1.2255-3.9005-2.0478-5.9478-2.3854zm78.262 14.556c-0.51668-0.0829-1.0584-0.14453-1.6214-0.17934-6.6952-0.41389-14.186 2.8295-14.748 11.919-0.44149 7.1416 5.2325 12.217 11.968 12.634 3.6519 0.22576 7.6325-0.91304 11.112-3.8343 0.51702-0.45683 0.74727-0.89069 0.77738-1.3776 0.0176-0.28405-0.046-0.57305-0.15267-0.82404-0.56645-1.3792-1.0082-2.1398-1.6533-3.5646-0.25394-0.50448-0.56847-0.6869-0.85251-0.70445-0.36519-0.0226-0.74297 0.15774-1.0015 0.38616-2.0581 1.665-4.1346 2.3103-5.8794 2.2024-2.6375-0.16305-4.4747-2.0685-4.3066-4.7872 0.27342-4.4229 3.8185-4.4481 4.8735-4.3828 1.4202 0.0878 2.8128 0.62195 3.5056 1.2758 0.15477 0.13176 0.35267 0.22545 0.51498 0.23548 0.48692 0.0301 0.95821-0.34803 1.1506-0.82493l2.2109-4.792c0.0455-0.0786 0.053-0.20033 0.058-0.28148 0.0549-0.88763-2.3393-2.5191-5.9561-3.0997zm-95.469-16.158c-1.9913-0.40811-4.1274-0.51413-6.4168-0.27784l-4.6688-0.70786c-0.4381-0.08978-0.87837 0.23479-0.97632 0.71271l-3.1291 20.938c-0.097948 0.47793 0.23479 0.87837 0.71271 0.97632l8.0153 1.1863c0.43809 0.0898 0.86998-0.19517 0.95977-0.63326l0.016644-0.08 2.1324-14.254c0.66988-0.0287 1.2442 6e-3 1.8018 0.12023 0.67706 0.13876 1.3293 0.39711 1.9257 0.72684 0.15116 0.0724 0.30241 0.14522 0.42189 0.16971 0.47792 0.0979 0.93332-0.0992 1.1671-0.63233l2.3057-5.3793c0.08063-0.19097 0.1531-0.34213 0.18574-0.50144 0.09795-0.47792-0.07539-0.84525-0.64014-1.127-1.1775-0.53182-2.4594-0.96022-3.8135-1.2377zm-30.724-3.1357c2.4512 0.4202 4.1942 2.2567 4.1942 4.7468 0 0.28458 1.95e-4 4.6345-4.4718 4.6345-1.0977 0-2.2364-0.28474-3.1308-0.69128l0.44764-8.5373c0.65047-0.16262 1.3009-0.24394 1.8701-0.24394 0.37606 0 0.74045 0.03118 1.0906 0.09121zm48.102 12.663c0.49717 0.11421 1.0166 0.33316 1.5521 0.68411 3.4684 2.2728 1.4435 5.6601 1.0202 6.3062-1.2701 1.9383-3.6509 3.1976-6.0652 1.6155-1.9383-1.2701-2.7495-4.0373-1.212-6.3836 0.81469-1.2433 2.5504-2.7171 4.7049-2.2222z" fill="#b87ccc" stroke-width="22.408" style="paint-order:stroke fill markers;white-space:pre"/><path transform="rotate(3.1442)" d="m98.508 115.17c-0.44218 0.042-0.76382 0.39197-0.76382 0.84933l1.74e-4 31.914c0 0.4472 0.36589 0.85362 0.85374 0.85362l8.5374 4.4e-4c0.4472 0 0.85362-0.40655 0.85362-0.85375l4e-5 -12.888 1.6669-1.1789c0 0.0406 0.0407 0.12203 0.0814 0.16269 1.6262 2.0734 7.8464 12.318 9.5132 14.636 0.28458 0.36589 0.56913 0.52845 0.89436 0.52845 0.32524 0 0.65054-0.16251 1.0571-0.32512l5.8131-2.6835c0.56916-0.24392 0.73224-0.65012 0.73224-1.0567 0-1.8294-7.0336-15.042-9.5542-15.042-0.40654 0-0.7725 0.20337-1.179 0.36598l-5.1628 1.8699c4.7159-3.3743 11.871-8.456 13.579-9.5943 0.4472-0.28458 0.69083-0.65044 0.69083-1.057 0-0.28458-0.1218-0.56946-0.36572-0.85405l-4.391-5.4476c-0.36589-0.4472-0.69107-0.60973-1.0163-0.60973-1.8294 0-11.871 8.8219-12.359 9.2691l-4e-5 -8.009c0-0.48785-0.40654-0.85363-0.85374-0.85363l-8.5374 9e-5c-0.03049 0-0.06033 2e-3 -0.08981 4e-3zm92.71 0.16084c-0.027 2e-3 -0.0542 6e-3 -0.0817 0.0112l-0.0799 0.0152-7.9154 1.902c-0.39204 0.11503-0.68431 0.54221-0.60918 0.94175l0.0153 0.0799 7.8166 32.327c0.13006 0.47194 0.58952 0.71652 1.029 0.63387l7.9085-1.942c0.47944-0.0902 0.72401-0.55009 0.63384-1.0295l-1.6447-6.7645 0.21712-0.16461c0.72395-0.54981 2.374-1.8947 4.1938-3.4366l-2.2878 4.1123c-0.15468 0.27729-0.19674 0.49212-0.15917 0.6919 0.0676 0.35959 0.36755 0.63382 0.63733 0.74855 2.2781 0.89535 7.8507 3.0328 10.319 4.058 0.26978 0.11473 0.52472 0.1494 0.72449 0.11184 0.39954-0.0751 0.67398-0.37489 0.91097-0.87449l2.3249-5.2359c0.13966-0.3572 0.17426-0.612 0.12918-0.85173-0.278-1.4783-6.9151-4.6566-9.8772-5.0096 2.1493-1.7693 4.1935-3.4361 5.1022-4.1034 0.43437-0.32989 0.60646-0.73461 0.53132-1.1342-0.0451-0.23972-0.17006-0.46427-0.37497-0.67394l-4.3305-4.7704c-0.41731-0.45929-0.80714-0.55146-1.1268-0.49135-1.758 0.33059-7.6684 6.7372-9.0661 8.3238l-4.0719-16.815c-0.11489-0.405-0.4628-0.69342-0.86793-0.65981zm-14.884 2.5534c-5.1631 0-10.773 2.683-11.546 10.204l-0.12179 1.5045-2.3579-0.122c-0.48786 0-0.85402 0.36584-0.89468 0.81304l-0.48789 6.7486c0 0.4472 0.36585 0.85403 0.81305 0.89468l2.9273 0.16214c0.12197 4.8379 0.44742 10.001 0.61004 14.026 0.0407 0.56916 0.44712 1.0572 1.0569 1.0572l0.0812-3.2e-4c0.93506 0 7.6025-0.44712 7.6025-0.44712 0.52851 0 1.0978-0.12181 1.0978-1.0162l-3e-4 -0.20337c-0.32523-3.7402-0.65054-8.578-0.81316-12.928l2.8459 0.12159 0.0813 1.9e-4c0.4472 0 0.77241-0.36578 0.81307-0.77233l0.48789-6.7486c0-0.48786-0.36584-0.89468-0.81304-0.89468l-3.4554-0.203c0-3.8622 2.8861-4.5536 4.9594-4.5536l0.12214 2e-5c0.52851 0 1.1788-0.40622 1.2601-1.0567l0.73183-4.635-1.3e-4 -0.16251c0-0.40655-0.12194-1.0161-0.65045-1.138-1.3009-0.40655-2.8051-0.65071-4.35-0.65071zm-36.719 4.0246c-7.0123 0.79056-10.05 7.2583-10.05 11.832 0 6.5454 5.8543 11.749 12.644 11.749 2.0734 0 4.2687-0.4878 6.3827-1.5855 2.0327 1.9108 4.8785 2.5608 5.2851 2.5608 0.52851 0 0.93511-0.36574 1.301-1.0569l2.5209-4.919c0.0813-0.16261 0.12171-0.28455 0.12171-0.36586 0-0.40654-0.44723-0.65088-0.85377-0.85415-1.301-0.69113-1.7481-2.4388-1.7481-4.8781 0-2.6832 0.56896-6.2206 1.1381-9.9202l2.4e-4 -0.20289c0-0.48786-0.28474-1.0167-1.3418-1.098l-7.0332-0.6094-0.20289-2.4e-4c-0.48786 0-0.85423 0.12198-1.0982 0.40656-1.5855-0.69113-3.5774-1.1384-5.6101-1.1384-0.5031 0-0.98811 0.0273-1.4556 0.08zm86.821 1.6079c-7.0123 0.79056-10.05 7.2583-10.05 11.832 0 6.5454 5.8543 11.749 12.644 11.749 2.0734 0 4.2692-0.48783 6.3832-1.5855 2.0327 1.9108 4.8785 2.5608 5.285 2.5608 0.52851 0 0.93461-0.36571 1.3005-1.0568l2.5209-4.919c0.0813-0.16262 0.1217-0.28455 0.1217-0.36586 0-0.40655-0.44723-0.65087-0.85377-0.85414-1.301-0.69113-1.7481-2.4388-1.7481-4.8781 0-2.6832 0.56946-6.2206 1.1386-9.9202l-2.8e-4 -0.20286c0-0.48785-0.28422-1.0167-1.3412-1.098l-7.0332-0.60941-0.2034-2.1e-4c-0.48786 0-0.8537 0.12194-1.0976 0.40653-1.5855-0.69113-3.5779-1.1383-5.6106-1.1383-0.5031 0-0.98811 0.0273-1.4556 0.08zm-83.496 5.7925c1.179 0 2.2767 0.56903 2.7646 1.3821-0.0813 1.2196-0.12154 2.3173-0.12154 3.3743 0 1.2603 0.0813 2.3988 0.20329 3.4559-0.93505 0.40654-1.8295 0.56939-2.602 0.56939-2.6426 0-4.2282-1.9518-4.2282-4.2284 0-2.0734 1.4227-4.5533 3.9839-4.5533zm86.822 1.6078c1.179 0 2.2767 0.56905 2.7646 1.3821-0.0813 1.2196-0.12206 2.3173-0.12206 3.3744 0 1.2603 0.0813 2.3988 0.2033 3.4558-0.93505 0.40655-1.8296 0.56939-2.602 0.56939-2.6426 0-4.2282-1.9518-4.2282-4.2284 0-2.0734 1.4232-4.5533 3.9844-4.5533z" fill="#600080" stroke-width="22.408" style="paint-order:stroke fill markers;white-space:pre"/><path transform="matrix(.26429 .012444 -.012444 .26429 -64.423 -41.011)" d="m199.06 758.52c0.56 0 1.064-0.504 1.12-1.12l0.56-11.592c2.128 0.616 4.424 0.952 6.776 0.952 11.648 0 18.704-7.224 18.704-17.584 0-10.808-9.352-18.48-19.712-18.48-2.184 0-4.424 0.392-6.664 1.12l-10.248-0.504h-0.112c-0.616 0-1.12 0.504-1.12 1.064l-2.296 44.296c0 0.672 0.448 1.176 1.12 1.232l11.76 0.616zm2.856-35.616c0.896-0.224 1.792-0.336 2.576-0.336 4.144 0 7.28 2.744 7.28 6.664 0 0.392 0 6.384-6.16 6.384-1.512 0-3.08-0.392-4.312-0.952zm42.428 35.168c0.616 0 1.12-0.504 1.12-1.12v-45.752c0-0.672-0.504-1.176-1.12-1.176h-11.256c-0.616 0-1.12 0.504-1.12 1.176v45.752c0 0.616 0.504 1.12 1.12 1.12zm41.98-0.056c0.616 0 1.176-0.448 1.232-1.12l1.512-29.12c0-0.672-0.448-1.232-1.12-1.232l-11.144-0.616c-0.616 0-1.176 0.448-1.232 1.12l-1.008 19.264c-1.4 0.672-2.744 1.064-3.864 1.064-2.352 0-4.032-1.68-4.256-6.496-0.336-6.664-0.448-9.688-0.784-13.44-0.056-0.672-0.504-1.232-1.624-1.232-0.952 0-9.632 0.616-9.688 0.728-0.672 0.056-1.456 0.504-1.456 2.8 0.056 3.584 0.168 10.528 0.336 14.168 0.504 10.416 6.552 14.784 14.336 14.784 2.464 0 5.096-0.448 7.784-1.288zm24.116-0.112c0.616 0 1.12-0.504 1.12-1.12v-0.112l-1.064-19.824c0.896-0.224 1.68-0.336 2.464-0.336 0.952 0 1.904 0.168 2.8 0.448 0.224 0.056 0.448 0.112 0.616 0.112 0.672 0 1.232-0.392 1.4-1.176l1.624-7.896c0.056-0.28 0.112-0.504 0.112-0.728 0-0.672-0.336-1.12-1.176-1.344-1.736-0.392-3.584-0.616-5.488-0.616-2.8 0-5.712 0.448-8.736 1.4l-6.496 0.336c-0.616 0-1.12 0.56-1.12 1.232l1.568 29.12c0 0.672 0.56 1.12 1.232 1.12zm50.436-6.832c0.112-0.224 0.168-0.392 0.168-0.504 0-0.56-0.616-0.896-1.176-1.176-1.792-0.952-2.408-3.36-2.408-6.72 0-3.696 0.784-8.568 1.568-13.664v-0.28c0-0.672-0.392-1.4-1.848-1.512l-9.688-0.84h-0.28c-0.672 0-1.176 0.168-1.512 0.56-2.184-0.952-4.928-1.568-7.728-1.568-11.088 0-15.848 9.688-15.848 16.408 0 9.016 8.064 16.184 17.416 16.184 2.856 0 5.88-0.672 8.792-2.184 2.8 2.632 6.72 3.528 7.28 3.528 0.728 0 1.288-0.504 1.792-1.456zm-16.408-4.088c-1.288 0.56-2.52 0.784-3.584 0.784-3.64 0-5.824-2.688-5.824-5.824 0-2.856 1.96-6.272 5.488-6.272 1.624 0 3.136 0.784 3.808 1.904-0.112 1.68-0.168 3.192-0.168 4.648 0 1.736 0.112 3.304 0.28 4.76zm34.14 11.088c0.616 0 1.12-0.504 1.12-1.12v-45.752c0-0.672-0.504-1.176-1.12-1.176h-11.256c-0.616 0-1.12 0.504-1.12 1.176v45.752c0 0.616 0.504 1.12 1.12 1.12zm23.164-0.224c0.56-0.056 1.064-0.56 1.064-1.12v-0.112l-1.4-27.328c0-0.56-0.504-1.064-1.064-1.064h-0.112l-11.2 0.56c-0.672 0.056-1.12 0.56-1.12 1.232l1.4 27.272c0.056 0.616 0.504 1.12 1.12 1.12h0.112zm0.56-38.808c0-4.592-3.696-8.288-8.232-8.288-4.592 0-8.288 3.696-8.288 8.288 0 4.536 3.696 8.232 8.288 8.232 4.536 0 8.232-3.696 8.232-8.232zm27.588 31.024c0.056-0.168 0.112-0.336 0.112-0.448 0-0.616-0.672-0.84-1.288-1.12-2.464-1.064-3.136-4.928-3.136-10.024l3.696 0.168h0.112c0.616 0 1.064-0.504 1.12-1.064l0.672-9.296c0-0.672-0.504-1.232-1.12-1.232l-3.864-0.224c0.168-2.352 0.336-4.816 0.448-7.168 0-0.952-0.448-1.512-1.4-1.568l-10.584-0.504h-0.224c-1.456 0-1.568 1.064-1.624 1.736-0.168 2.408-0.28 4.704-0.392 6.832l-3.584-0.224c-0.672 0-1.176 0.504-1.232 1.12l-0.672 9.296c0 0.616 0.504 1.176 1.12 1.232l4.2 0.224c0.28 14.168 3.416 19.096 12.432 20.888 0.168 0.056 0.336 0.056 0.504 0.056 0.84 0 1.344-0.56 1.792-1.624zm15.492 23.912c0.392 0.168 0.728 0.224 1.008 0.224 0.672 0 1.176-0.336 1.736-0.952 22.904-27.832 27.16-39.312 27.16-40.152 0-0.504-0.336-0.896-1.008-1.232l-8.344-4.312c-0.56-0.336-1.064-0.448-1.4-0.448-0.616 0-1.008 0.336-1.344 0.896-2.744 4.312-5.936 9.296-9.24 14.28l-6.664-15.064c-0.392-0.952-1.12-1.68-2.128-1.68-0.224 0-0.448 0.056-0.672 0.112l-8.904 2.632c-0.84 0.224-1.512 0.728-1.512 1.512 0 0.28 0.112 0.616 0.28 1.008l10.472 23.688c0.168 0.336 0.28 0.616 0.448 0.784l-8.792 13.048c-0.28 0.392-0.448 0.784-0.448 1.176 0 0.56 0.392 1.008 1.232 1.344zm88.216-16.296c3.416-0.168 6.664-6.048 10.696-28.056 0.056-0.28 0.112-0.616 0.112-0.896 0-0.784-0.336-1.456-1.96-1.736l-6.776-1.344c-0.504-0.112-1.064-0.224-1.568-0.224-0.728 0-1.288 0.28-1.512 1.288-2.52 12.152-2.632 12.544-2.8 12.544-0.112 0-0.224-0.224-0.28-0.392l-1.456-6.72c-0.336-0.84-0.84-1.12-1.624-1.12h-0.28l-6.44 0.28c-1.344 0.112-1.96 0.448-2.072 1.68-0.056 0.504-0.392 4.536-0.616 6.44-0.056 0.336-0.224 0.504-0.336 0.504s-0.224-0.056-0.336-0.28l-5.712-12.04c-0.224-0.504-0.728-0.896-1.512-0.896-0.28 0-0.616 0.056-1.008 0.168l-8.176 2.688c-1.12 0.392-1.456 0.896-1.456 1.4 0 0.448 0.224 0.896 0.392 1.232l11.424 25.088c0.504 1.12 1.512 1.456 2.52 1.456h0.28l5.544-0.28c0.952-0.056 1.848-0.728 2.016-1.4 0.448-1.456 1.68-6.944 2.24-9.464 0.056-0.224 0.112-0.56 0.224-0.56 0.056 0 0.168 0.112 0.336 0.56 0.896 2.464 3.248 8.68 3.584 9.352 0.448 0.728 1.008 0.952 1.904 0.952h0.392zm29.772 0.168c0.56-0.056 1.064-0.56 1.064-1.12v-0.112l-1.4-27.328c0-0.56-0.504-1.064-1.064-1.064h-0.112l-11.2 0.56c-0.672 0.056-1.12 0.56-1.12 1.232l1.4 27.272c0.056 0.616 0.504 1.12 1.12 1.12h0.112zm0.56-38.808c0-4.592-3.696-8.288-8.232-8.288-4.592 0-8.288 3.696-8.288 8.288 0 4.536 3.696 8.232 8.288 8.232 4.536 0 8.232-3.696 8.232-8.232zm27.588 31.024c0.056-0.168 0.112-0.336 0.112-0.448 0-0.616-0.672-0.84-1.288-1.12-2.464-1.064-3.136-4.928-3.136-10.024l3.696 0.168h0.112c0.616 0 1.064-0.504 1.12-1.064l0.672-9.296c0-0.672-0.504-1.232-1.12-1.232l-3.864-0.224c0.168-2.352 0.336-4.816 0.448-7.168 0-0.952-0.448-1.512-1.4-1.568l-10.584-0.504h-0.224c-1.456 0-1.568 1.064-1.624 1.736-0.168 2.408-0.28 4.704-0.392 6.832l-3.584-0.224c-0.672 0-1.176 0.504-1.232 1.12l-0.672 9.296c0 0.616 0.504 1.176 1.12 1.232l4.2 0.224c0.28 14.168 3.416 19.096 12.432 20.888 0.168 0.056 0.336 0.056 0.504 0.056 0.84 0 1.344-0.56 1.792-1.624zm46.292 3.976c0.392-0.336 0.504-0.672 0.504-0.952 0-0.616-0.616-1.176-0.952-1.456-2.744-2.184-3.472-4.984-3.528-8.624-0.168-11.088-8.568-17.36-19.096-17.36-0.616 0-1.288 0-1.96 0.056v-14.56c0-0.616-0.504-1.176-1.12-1.176h-11.2c-0.672 0-1.176 0.56-1.176 1.176v45.808c0 0.672 0.504 1.176 1.176 1.176h11.2c0.616 0 1.12-0.504 1.12-1.176v-20.328h0.28c4.032 0 7.168 2.408 7.168 9.184 0 11.368 10.36 13.272 10.584 13.272 0.504 0 1.064-0.168 1.68-0.672zm34.456 19.936c0.392 0.168 0.728 0.224 1.008 0.224 0.672 0 1.176-0.336 1.736-0.952 22.904-27.832 27.16-39.312 27.16-40.152 0-0.504-0.336-0.896-1.008-1.232l-8.344-4.312c-0.56-0.336-1.064-0.448-1.4-0.448-0.616 0-1.008 0.336-1.344 0.896-2.744 4.312-5.936 9.296-9.24 14.28l-6.664-15.064c-0.392-0.952-1.12-1.68-2.128-1.68-0.224 0-0.448 0.056-0.672 0.112l-8.904 2.632c-0.84 0.224-1.512 0.728-1.512 1.512 0 0.28 0.112 0.616 0.28 1.008l10.472 23.688c0.168 0.336 0.28 0.616 0.448 0.784l-8.792 13.048c-0.28 0.392-0.448 0.784-0.448 1.176 0 0.56 0.392 1.008 1.232 1.344zm68.524-31.92c0-7.28-5.32-16.968-17.696-16.968-9.856 0-18.48 5.992-18.48 17.528 0 9.856 8.008 16.464 17.136 16.464 7.952 0 19.04-6.104 19.04-17.024zm-17.696 6.328c-3.192 0-6.216-2.576-6.216-6.44 0-2.52 1.344-6.496 6.048-6.496 5.712 0 5.936 5.432 5.936 6.496 0 3.192-1.792 6.44-5.768 6.44zm55.924 9.632c0.616 0 1.176-0.448 1.232-1.12l1.512-29.12c0-0.672-0.448-1.232-1.12-1.232l-11.144-0.616c-0.616 0-1.176 0.448-1.232 1.12l-1.008 19.264c-1.4 0.672-2.744 1.064-3.864 1.064-2.352 0-4.032-1.68-4.256-6.496-0.336-6.664-0.448-9.688-0.784-13.44-0.056-0.672-0.504-1.232-1.624-1.232-0.952 0-9.632 0.616-9.688 0.728-0.672 0.056-1.456 0.504-1.456 2.8 0.056 3.584 0.168 10.528 0.336 14.168 0.504 10.416 6.552 14.784 14.336 14.784 2.464 0 5.096-0.448 7.784-1.288z" fill="#fcacac" stroke-width="39.685" style="paint-order:stroke fill markers;white-space:pre" aria-label="Plurality with you"/></g><path d="m37.912 100.4a2.1595 2.1595 0 0 1 2.592 1.5923 2.1595 2.1595 0 0 1-1.5721 2.6044 2.1595 2.1595 0 0 1-2.6165-1.5517 2.1595 2.1595 0 0 1 1.5313-2.6286" fill="#ffd5f6" stroke-linejoin="round" stroke-width="3.6134" style="paint-order:stroke fill markers"/></g></g></svg>
